<svg xmlns="http://www.w3.org/2000/svg" width="5897" height="3201" fill="none"><g fill="#fff" filter="url(#a)"><path d="M2733.62 754.152c-14.4 0-24.64-9.856-24.64-23.488 0-13.696 10.24-23.552 24.64-23.552s24.64 9.792 24.64 23.552c0 13.696-10.24 23.488-24.64 23.488zm0-11.456c6.85 0 11.78-5.056 11.78-12.032 0-7.04-4.93-12.096-11.78-12.096-6.78 0-11.84 5.12-11.84 12.096 0 6.912 5.06 12.032 11.84 12.032zm46.92 11.456c-10.18 0-17.03-6.272-17.03-15.936V718.44h11.91v19.264c0 3.648 1.98 5.76 5.12 5.76 3.2 0 5.12-2.176 5.12-5.76V718.44h11.9v19.776c0 9.664-6.78 15.936-17.02 15.936zm43.37-35.84h3.2v10.88h-4.67c-4.16 0-5.95 1.856-5.95 6.272V753h-11.9v-34.56h8l1.85 3.84c2.43-2.816 5.38-3.968 9.47-3.968zm39.7-10.112c9.54 0 16.64 6.848 16.64 16.192 0 9.408-7.1 16.256-16.64 16.256h-6.72V753h-12.35v-44.8h19.07zm-1.47 21.696c3.26 0 5.37-2.24 5.37-5.44s-2.11-5.44-5.37-5.44h-5.25v10.88h5.25zm44.19-12.416c7.94 0 13.06 5.76 13.06 14.72V753h-11.91v-19.392c0-3.968-1.4-6.016-4.54-6.016-3.58 0-5.82 2.56-5.82 6.976V753h-11.91v-47.04h11.91v14.784c2.56-2.048 5.76-3.264 9.21-3.264zm20.2-3.328V704.04h11.77v10.112h-11.77zm-.07 38.848v-34.56h11.91V753h-11.91zm19.38 0v-47.04h11.9V753h-11.9zm36.72 1.152c-11.27 0-19.33-7.744-19.33-18.432 0-10.688 8.06-18.368 19.33-18.368 11.26 0 19.39 7.68 19.39 18.368 0 10.688-8.13 18.432-19.39 18.432zm0-10.688c4.35 0 7.48-3.136 7.48-7.68s-3.13-7.744-7.48-7.744c-4.29 0-7.43 3.136-7.43 7.744 0 4.544 3.14 7.68 7.43 7.68zm38.21 10.688c-9.4 0-15.1-4.992-15.23-12.48H3017c0 2.56 1.79 3.712 4.03 3.712 1.73 0 3.39-.896 3.39-2.688 0-1.984-2.62-2.56-5.95-3.072-5.38-.896-12.48-2.496-12.48-10.88 0-6.912 5.95-11.392 14.78-11.392 8.77 0 14.53 4.672 14.66 11.648h-11.2c0-2.176-1.47-3.2-3.58-3.2-1.92 0-3.2.96-3.2 2.56 0 1.92 2.62 2.432 5.88 3.008 5.51.96 12.74 2.112 12.74 10.816 0 7.232-6.08 11.968-15.3 11.968zm38.22 0c-11.26 0-19.32-7.744-19.32-18.432 0-10.688 8.06-18.368 19.32-18.368 11.27 0 19.4 7.68 19.4 18.368 0 10.688-8.13 18.432-19.4 18.432zm0-10.688c4.36 0 7.49-3.136 7.49-7.68s-3.13-7.744-7.49-7.744c-4.28 0-7.42 3.136-7.42 7.744 0 4.544 3.14 7.68 7.42 7.68zm45.13-26.112c10.56 0 18.12 7.616 18.12 18.368 0 10.816-7.56 18.496-18.12 18.496-3.13 0-6.01-.832-8.44-2.304v13.568h-11.78v-47.04h8.13l1.47 2.752c2.82-2.432 6.46-3.84 10.62-3.84zm-1.6 26.304c4.42 0 7.75-3.392 7.75-7.936 0-4.48-3.33-7.872-7.75-7.872-4.48 0-7.74 3.392-7.74 7.872 0 4.544 3.26 7.936 7.74 7.936zm46.25-26.176c7.94 0 13.06 5.76 13.06 14.72V753h-11.91v-19.392c0-3.968-1.41-6.016-4.54-6.016-3.59 0-5.83 2.56-5.83 6.976V753h-11.9v-47.04h11.9v14.784c2.56-2.048 5.76-3.264 9.22-3.264zm42.05.96h12.8l-14.53 33.024c-4.67 10.624-8.89 14.4-17.85 14.4h-4.1v-10.176h3.33c4.54 0 5.89-1.216 7.49-5.504l-14.27-31.744h12.92l7.36 19.072 6.85-19.072zm-469.71 74.76h.77V810h-.77v-8.376h-10.75V810h-.79v-16.8h.79v7.656h10.75V793.2zm17.27 10.248c0 .096 0 .216-.02.312h-12.1c.12 3.312 2.55 5.736 5.74 5.736 2.3 0 4.13-1.176 5.16-3.192h.82c-1.23 2.568-3.32 3.96-5.98 3.96-3.7 0-6.48-2.904-6.48-6.744 0-3.816 2.78-6.72 6.48-6.72 3.74 0 6.38 2.904 6.38 6.648zm-6.38-5.904c-3.12 0-5.5 2.304-5.71 5.496h11.33c-.2-3.288-2.57-5.496-5.62-5.496zm15.19-.528h1.13v.744h-1.18c-2.71 0-4.51 2.088-4.51 4.944V810h-.77v-12.96h.6l.12 2.952c.82-1.824 2.42-2.976 4.61-2.976zm14.91 6.432c0 .096 0 .216-.02.312h-12.1c.12 3.312 2.55 5.736 5.74 5.736 2.3 0 4.13-1.176 5.16-3.192h.82c-1.23 2.568-3.32 3.96-5.98 3.96-3.7 0-6.48-2.904-6.48-6.744 0-3.816 2.78-6.72 6.48-6.72 3.74 0 6.38 2.904 6.38 6.648zm-6.38-5.904c-3.12 0-5.5 2.304-5.71 5.496h11.33c-.2-3.288-2.57-5.496-5.62-5.496zm28.08-.504.65.024v12.96h-.67l-.08-3.384c-1.05 2.184-3.21 3.624-5.92 3.624-3.77 0-6.6-2.904-6.6-6.72 0-3.84 2.83-6.744 6.6-6.744 2.71 0 4.89 1.44 5.92 3.648l.1-3.408zm-5.98 12.48c3.39 0 5.86-2.52 5.86-5.976s-2.47-6-5.86-6c-3.36 0-5.88 2.592-5.88 6s2.52 5.976 5.88 5.976zm16.21-.24h1.63v.744h-1.7c-2.43 0-3.89-1.488-3.89-3.96v-8.304h-2.98v-.696h2.98v-3.816h.77v3.816h4.7v.696h-4.7v8.28c0 2.04 1.15 3.24 3.19 3.24zm20.59-3.576v.672h-2.01V810h-.75v-3.624h-8.61v-.336l5.95-12.072h.79l-5.76 11.736h7.63v-5.928h.75v5.928h2.01zm8.03 4.56c-3.6 0-5.88-3.168-5.88-8.232 0-5.088 2.25-8.232 5.88-8.232 3.62 0 5.9 3.144 5.9 8.232 0 5.064-2.28 8.232-5.9 8.232zm0-.72c3.17 0 5.13-2.856 5.13-7.512s-1.96-7.512-5.13-7.512-5.14 2.856-5.14 7.512 1.97 7.512 5.14 7.512zm19.23-3.84v.672h-2.02V810h-.74v-3.624h-8.62v-.336l5.96-12.072h.79l-5.76 11.736h7.63v-5.928h.74v5.928h2.02zm14.51-8.664.64.024v12.96h-.67l-.07-3.384c-1.06 2.184-3.22 3.624-5.93 3.624-3.77 0-6.6-2.904-6.6-6.72 0-3.84 2.83-6.744 6.6-6.744 2.71 0 4.9 1.44 5.93 3.648l.1-3.408zm-5.98 12.48c3.38 0 5.86-2.52 5.86-5.976s-2.48-6-5.86-6c-3.36 0-5.88 2.592-5.88 6s2.52 5.976 5.88 5.976zm18-12.72c3.84 0 6.58 2.904 6.58 6.72 0 3.84-2.74 6.744-6.58 6.744-2.64 0-4.82-1.44-5.88-3.6v7.92h-.76V797.04h.6l.14 3.408c1.06-2.208 3.26-3.648 5.9-3.648zm-.04 12.72c3.38 0 5.85-2.544 5.85-6s-2.47-5.976-5.85-5.976c-3.34 0-5.86 2.568-5.86 5.976s2.52 6 5.86 6zm15.82.744c-3.84 0-6.75-2.88-6.75-6.744s2.91-6.72 6.75-6.72c3.86 0 6.74 2.88 6.74 6.72 0 3.864-2.88 6.744-6.74 6.744zm0-.744c3.43 0 5.95-2.568 5.95-6 0-3.408-2.52-5.976-5.95-5.976-3.44 0-5.98 2.544-5.98 5.976s2.57 6 5.98 6zm10.32.48v-17.52h.77V810h-.77zm5.48 0v-17.52h.77V810h-.77zm11.08.264c-3.84 0-6.75-2.88-6.75-6.744s2.91-6.72 6.75-6.72c3.86 0 6.74 2.88 6.74 6.72 0 3.864-2.88 6.744-6.74 6.744zm0-.744c3.43 0 5.95-2.568 5.95-6 0-3.408-2.52-5.976-5.95-5.976s-5.98 2.544-5.98 5.976 2.57 6 5.98 6zm9.27 3.096v-.648c.58-.384.77-.864.77-1.968h-.81v-1.464h1.36v1.368c0 1.512-.38 2.184-1.32 2.712zm28.25-15.576h.79l-4.6 12.96h-.58l-4.44-11.04-4.37 11.04h-.6l-4.46-12.96h.81l3.99 11.616 4.46-11.184h.36l4.51 11.232 4.13-11.664zm15.45 6.408c0 .096 0 .216-.02.312h-12.1c.12 3.312 2.55 5.736 5.74 5.736 2.3 0 4.13-1.176 5.16-3.192h.81c-1.22 2.568-3.31 3.96-5.97 3.96-3.7 0-6.48-2.904-6.48-6.744 0-3.816 2.78-6.72 6.48-6.72 3.74 0 6.38 2.904 6.38 6.648zm-6.38-5.904c-3.12 0-5.5 2.304-5.71 5.496h11.32c-.19-3.288-2.56-5.496-5.61-5.496zm9.02 1.056v-5.448h.75v5.448h-.75zm14.68-1.56h.79l-5.76 12.96h-.64l-5.91-12.96h.82l5.4 11.88 5.3-11.88zm15.24 6.408c0 .096 0 .216-.03.312h-12.09c.12 3.312 2.54 5.736 5.73 5.736 2.31 0 4.13-1.176 5.16-3.192h.82c-1.23 2.568-3.31 3.96-5.98 3.96-3.69 0-6.48-2.904-6.48-6.744 0-3.816 2.79-6.72 6.48-6.72 3.75 0 6.39 2.904 6.39 6.648zm-6.39-5.904c-3.12 0-5.49 2.304-5.71 5.496h11.33c-.19-3.288-2.57-5.496-5.62-5.496zm23.26-.744c3.84 0 6.57 2.904 6.57 6.72 0 3.84-2.73 6.744-6.57 6.744-2.64 0-4.83-1.44-5.88-3.6v7.92h-.77V797.04h.6l.14 3.408c1.06-2.208 3.27-3.648 5.91-3.648zm-.05 12.72c3.38 0 5.86-2.544 5.86-6s-2.48-5.976-5.86-5.976c-3.34 0-5.86 2.568-5.86 5.976s2.52 6 5.86 6zm21.7-12.48.65.024v12.96h-.67l-.08-3.384c-1.05 2.184-3.21 3.624-5.92 3.624-3.77 0-6.6-2.904-6.6-6.72 0-3.84 2.83-6.744 6.6-6.744 2.71 0 4.89 1.44 5.92 3.648l.1-3.408zm-5.98 12.48c3.39 0 5.86-2.52 5.86-5.976s-2.47-6-5.86-6c-3.36 0-5.88 2.592-5.88 6s2.52 5.976 5.88 5.976zm16.69-12.504h1.13v.744h-1.18c-2.71 0-4.51 2.088-4.51 4.944V810h-.77v-12.96h.6l.12 2.952c.82-1.824 2.42-2.976 4.61-2.976zm8.64 12.264h1.63v.744h-1.71c-2.42 0-3.88-1.488-3.88-3.96v-8.304h-2.98v-.696h2.98v-3.816h.76v3.816h4.71v.696h-4.71v8.28c0 2.04 1.16 3.24 3.2 3.24zm10.14-12.48c3.15 0 5.09 2.208 5.09 5.544V810h-.77v-7.536c0-3.072-1.68-4.944-4.46-4.944-2.64 0-4.9 2.28-4.9 4.944V810h-.76v-12.96h.6l.14 3c.86-1.92 2.83-3.24 5.06-3.24zm21.31 6.648c0 .096 0 .216-.03.312h-12.09c.12 3.312 2.54 5.736 5.73 5.736 2.31 0 4.13-1.176 5.16-3.192h.82c-1.23 2.568-3.31 3.96-5.98 3.96-3.69 0-6.48-2.904-6.48-6.744 0-3.816 2.79-6.72 6.48-6.72 3.75 0 6.39 2.904 6.39 6.648zm-6.39-5.904c-3.12 0-5.49 2.304-5.71 5.496h11.33c-.19-3.288-2.57-5.496-5.62-5.496zm15.19-.528h1.13v.744h-1.18c-2.71 0-4.51 2.088-4.51 4.944V810h-.77v-12.96h.6l.12 2.952c.82-1.824 2.43-2.976 4.61-2.976zm14.91 6.432c0 .096 0 .216-.02.312h-12.1c.12 3.312 2.55 5.736 5.74 5.736 2.3 0 4.13-1.176 5.16-3.192h.82c-1.23 2.568-3.32 3.96-5.98 3.96-3.7 0-6.48-2.904-6.48-6.744 0-3.816 2.78-6.72 6.48-6.72 3.74 0 6.38 2.904 6.38 6.648zm-6.38-5.904c-3.12 0-5.5 2.304-5.71 5.496h11.33c-.2-3.288-2.57-5.496-5.62-5.496zm21.16-5.064h.77V810h-.62l-.12-3.288c-1.06 2.136-3.19 3.552-5.88 3.552-3.79 0-6.6-2.904-6.6-6.744 0-3.816 2.81-6.72 6.6-6.72 2.66 0 4.8 1.392 5.85 3.528v-7.848zm-5.8 17.04c3.38 0 5.85-2.544 5.85-6 0-3.432-2.47-5.976-5.85-5.976-3.36 0-5.88 2.568-5.88 5.976s2.52 6 5.88 6zm34.19-12.48h.8l-4.61 12.96h-.58l-4.44-11.04-4.37 11.04h-.6l-4.46-12.96h.82l3.98 11.616 4.46-11.184h.36l4.52 11.232 4.12-11.664zm3.57-2.88v-1.32h1.13v1.32h-1.13zm.19 15.84v-12.96h.77V810h-.77zm10.34-.72h1.63v.744h-1.71c-2.42 0-3.88-1.488-3.88-3.96v-8.304h-2.98v-.696h2.98v-3.816h.76v3.816h4.71v.696h-4.71v8.28c0 2.04 1.16 3.24 3.2 3.24zm10.14-12.48c3.15 0 5.09 2.136 5.09 5.544V810h-.77v-7.536c0-3.072-1.68-4.944-4.46-4.944-2.64 0-4.9 2.28-4.9 4.944V810h-.77v-17.52h.77v7.512a5.572 5.572 0 0 1 5.04-3.192zm20.53 12.48h1.64v.744h-1.71c-2.42 0-3.89-1.488-3.89-3.96v-8.304h-2.97v-.696h2.97v-3.816h.77v3.816h4.71v.696h-4.71v8.28c0 2.04 1.15 3.24 3.19 3.24zm10.15-12.48c3.15 0 5.09 2.136 5.09 5.544V810h-.77v-7.536c0-3.072-1.68-4.944-4.46-4.944-2.64 0-4.9 2.28-4.9 4.944V810h-.77v-17.52h.77v7.512a5.572 5.572 0 0 1 5.04-3.192zm21.31 6.648c0 .096 0 .216-.03.312h-12.09c.12 3.312 2.54 5.736 5.73 5.736 2.31 0 4.13-1.176 5.16-3.192h.82c-1.23 2.568-3.31 3.96-5.98 3.96-3.69 0-6.48-2.904-6.48-6.744 0-3.816 2.79-6.72 6.48-6.72 3.75 0 6.39 2.904 6.39 6.648zm-6.39-5.904c-3.12 0-5.49 2.304-5.71 5.496h11.33c-.19-3.288-2.57-5.496-5.62-5.496zm22.43-.48v.696h-4.61V810h-.77v-12.24h-2.81v-.696h2.81v-1.008c0-3 1.15-4.176 4.18-4.176h1.2v.672h-1.08c-2.67 0-3.56.888-3.56 3.504v1.008h4.64zm2.47-2.904v-1.32h1.13v1.32h-1.13zm.19 15.84v-12.96h.77V810h-.77zm11.3-13.2c3.14 0 5.09 2.208 5.09 5.544V810h-.77v-7.536c0-3.072-1.68-4.944-4.47-4.944-2.64 0-4.89 2.28-4.89 4.944V810h-.77v-12.96h.6l.14 3c.87-1.92 2.84-3.24 5.07-3.24zm21.3 6.648c0 .096 0 .216-.02.312h-12.1c.12 3.312 2.54 5.736 5.74 5.736 2.3 0 4.12-1.176 5.16-3.192h.81c-1.22 2.568-3.31 3.96-5.97 3.96-3.7 0-6.48-2.904-6.48-6.744 0-3.816 2.78-6.72 6.48-6.72 3.74 0 6.38 2.904 6.38 6.648zm-6.38-5.904c-3.12 0-5.5 2.304-5.72 5.496h11.33c-.19-3.288-2.57-5.496-5.61-5.496zm13.58 12.72c-2.93 0-4.73-1.44-4.95-3.792h.77c.19 1.944 1.75 3.072 4.2 3.072 2.47 0 4.1-1.176 4.1-2.976 0-2.232-2.11-2.64-4.24-3-2.26-.384-4.56-.768-4.56-3.312 0-2.064 1.84-3.456 4.58-3.456 2.76 0 4.51 1.392 4.63 3.624h-.72c-.14-1.824-1.56-2.928-3.91-2.928-2.3 0-3.84 1.104-3.84 2.736 0 1.944 1.87 2.256 3.98 2.616 2.28.36 4.85.84 4.85 3.696 0 2.232-1.97 3.72-4.89 3.72zm13.15-.984h1.63v.744h-1.71c-2.42 0-3.88-1.488-3.88-3.96v-8.304h-2.98v-.696h2.98v-3.816h.76v3.816h4.71v.696h-4.71v8.28c0 2.04 1.16 3.24 3.2 3.24zm-570.49 18.52c2.62 0 4.37 2.016 4.37 5.04V841h-.77v-7.992c0-2.712-1.46-4.488-3.7-4.488-2.59 0-4.36 1.992-4.39 4.92V841h-.74v-7.992c0-2.76-1.47-4.488-3.72-4.488-2.57 0-4.35 1.992-4.37 4.92V841h-.77v-12.96h.6l.12 2.664c.82-1.8 2.47-2.904 4.56-2.904 2.07 0 3.58 1.272 4.11 3.312.74-2.04 2.49-3.312 4.7-3.312zm8.67-2.64v-1.32h1.12v1.32h-1.12zm.19 15.84v-12.96h.77V841h-.77zm11.29-13.2c3.14 0 5.09 2.208 5.09 5.544V841h-.77v-7.536c0-3.072-1.68-4.944-4.46-4.944-2.64 0-4.9 2.28-4.9 4.944V841h-.77v-12.96h.6l.15 3c.86-1.92 2.83-3.24 5.06-3.24zm20.87-4.32h.77V841h-.63l-.12-3.288c-1.05 2.136-3.19 3.552-5.88 3.552-3.79 0-6.6-2.904-6.6-6.744 0-3.816 2.81-6.72 6.6-6.72 2.67 0 4.8 1.392 5.86 3.528v-7.848zm-5.81 17.04c3.39 0 5.86-2.544 5.86-6 0-3.432-2.47-5.976-5.86-5.976-3.36 0-5.88 2.568-5.88 5.976s2.52 6 5.88 6zm15.03.744c-2.93 0-4.73-1.44-4.94-3.792h.77c.19 1.944 1.75 3.072 4.2 3.072 2.47 0 4.1-1.176 4.1-2.976 0-2.232-2.11-2.64-4.25-3-2.25-.384-4.56-.768-4.56-3.312 0-2.064 1.85-3.456 4.59-3.456 2.76 0 4.51 1.392 4.63 3.624h-.72c-.15-1.824-1.56-2.928-3.91-2.928-2.31 0-3.84 1.104-3.84 2.736 0 1.944 1.87 2.256 3.98 2.616 2.28.36 4.85.84 4.85 3.696 0 2.232-1.97 3.72-4.9 3.72zm14.98-16.104v-1.32h1.13v1.32h-1.13zm.19 15.84v-12.96h.77V841h-.77zm11.29-13.2c3.15 0 5.09 2.208 5.09 5.544V841h-.77v-7.536c0-3.072-1.68-4.944-4.46-4.944-2.64 0-4.9 2.28-4.9 4.944V841h-.76v-12.96h.6l.14 3c.86-1.92 2.83-3.24 5.06-3.24zm20.54 12.48h1.63v.744h-1.71c-2.42 0-3.88-1.488-3.88-3.96v-8.304h-2.98v-.696h2.98v-3.816h.76v3.816h4.71v.696h-4.71v8.28c0 2.04 1.16 3.24 3.2 3.24zm10.14-12.48c3.15 0 5.09 2.136 5.09 5.544V841h-.77v-7.536c0-3.072-1.68-4.944-4.46-4.944-2.64 0-4.9 2.28-4.9 4.944V841h-.76v-17.52h.76v7.512a5.583 5.583 0 0 1 5.04-3.192zm21.31 6.648c0 .096 0 .216-.03.312h-12.09c.12 3.312 2.54 5.736 5.73 5.736 2.31 0 4.13-1.176 5.16-3.192h.82c-1.22 2.568-3.31 3.96-5.98 3.96-3.69 0-6.48-2.904-6.48-6.744 0-3.816 2.79-6.72 6.48-6.72 3.75 0 6.39 2.904 6.39 6.648zm-6.39-5.904c-3.12 0-5.49 2.304-5.71 5.496h11.33c-.19-3.288-2.57-5.496-5.62-5.496zm16.42-3.384v-1.32h1.13v1.32h-1.13zm.19 15.84v-12.96h.77V841h-.77zm11.29-13.2c3.15 0 5.09 2.208 5.09 5.544V841h-.77v-7.536c0-3.072-1.68-4.944-4.46-4.944-2.64 0-4.9 2.28-4.9 4.944V841h-.76v-12.96h.6l.14 3c.86-1.92 2.83-3.24 5.06-3.24zm20.88-4.32h.76V841h-.62l-.12-3.288c-1.06 2.136-3.19 3.552-5.88 3.552-3.79 0-6.6-2.904-6.6-6.744 0-3.816 2.81-6.72 6.6-6.72 2.66 0 4.8 1.392 5.86 3.528v-7.848zm-5.81 17.04c3.38 0 5.85-2.544 5.85-6 0-3.432-2.47-5.976-5.85-5.976-3.36 0-5.88 2.568-5.88 5.976s2.52 6 5.88 6zm16.51.744c-3.33 0-5.47-2.232-5.47-5.688v-7.536h.77v7.44c0 3.096 1.8 5.04 4.7 5.04 2.91 0 4.68-1.944 4.68-5.04v-7.44h.77v7.536c0 3.456-2.11 5.688-5.45 5.688zm13.66 0c-2.93 0-4.73-1.44-4.95-3.792h.77c.19 1.944 1.75 3.072 4.2 3.072 2.47 0 4.1-1.176 4.1-2.976 0-2.232-2.11-2.64-4.24-3-2.26-.384-4.56-.768-4.56-3.312 0-2.064 1.84-3.456 4.58-3.456 2.76 0 4.51 1.392 4.63 3.624h-.72c-.14-1.824-1.56-2.928-3.91-2.928-2.3 0-3.84 1.104-3.84 2.736 0 1.944 1.87 2.256 3.98 2.616 2.28.36 4.85.84 4.85 3.696 0 2.232-1.97 3.72-4.89 3.72zm13.15-.984h1.63v.744h-1.7c-2.43 0-3.89-1.488-3.89-3.96v-8.304h-2.98v-.696h2.98v-3.816h.77v3.816h4.7v.696h-4.7v8.28c0 2.04 1.15 3.24 3.19 3.24zm9.67-12.264h1.12v.744h-1.17c-2.71 0-4.51 2.088-4.51 4.944V841h-.77v-12.96h.6l.12 2.952c.81-1.824 2.42-2.976 4.61-2.976zm13.77.024h.81l-6.6 14.112c-1.24 2.688-2.37 3.432-4.44 3.432h-1v-.72h.96c1.77 0 2.66-.528 3.79-2.928l.77-1.656-6.05-12.24h.86l5.59 11.4 5.31-11.4zm1.51 12.96v-1.488h1.15V841h-1.15zm11.9 0v-17.52h.76V841h-.76zm17.22-6.552c0 .096 0 .216-.03.312h-12.09c.12 3.312 2.54 5.736 5.73 5.736 2.31 0 4.13-1.176 5.16-3.192h.82c-1.23 2.568-3.31 3.96-5.98 3.96-3.69 0-6.48-2.904-6.48-6.744 0-3.816 2.79-6.72 6.48-6.72 3.75 0 6.39 2.904 6.39 6.648zm-6.39-5.904c-3.12 0-5.49 2.304-5.71 5.496h11.33c-.19-3.288-2.57-5.496-5.62-5.496zm19.37-.504h.79l-5.76 12.96h-.65l-5.9-12.96h.82l5.4 11.88 5.3-11.88zm15.23 6.408c0 .096 0 .216-.02.312h-12.1c.12 3.312 2.55 5.736 5.74 5.736 2.3 0 4.13-1.176 5.16-3.192h.82c-1.23 2.568-3.32 3.96-5.98 3.96-3.7 0-6.48-2.904-6.48-6.744 0-3.816 2.78-6.72 6.48-6.72 3.74 0 6.38 2.904 6.38 6.648zm-6.38-5.904c-3.12 0-5.5 2.304-5.71 5.496h11.33c-.2-3.288-2.57-5.496-5.62-5.496zm15.19-.528h1.13v.744h-1.18c-2.71 0-4.51 2.088-4.51 4.944V841h-.77v-12.96h.6l.12 2.952c.82-1.824 2.42-2.976 4.61-2.976zm14.65.024.65.024v12.96h-.67l-.08-3.384c-1.05 2.184-3.21 3.624-5.92 3.624-3.77 0-6.6-2.904-6.6-6.72 0-3.84 2.83-6.744 6.6-6.744 2.71 0 4.89 1.44 5.92 3.648l.1-3.408zm-5.98 12.48c3.39 0 5.86-2.52 5.86-5.976s-2.47-6-5.86-6c-3.36 0-5.88 2.592-5.88 6s2.52 5.976 5.88 5.976zm22.28-12.48h.57v11.064c0 4.2-2.3 6.744-6.12 6.744-2.9 0-4.94-1.464-5.73-3.96h.77c.76 2.064 2.59 3.24 4.96 3.24 3.32 0 5.38-2.232 5.38-5.952v-1.968c-1.01 2.04-3.07 3.336-5.59 3.336-3.58 0-6.31-2.736-6.31-6.36s2.76-6.384 6.31-6.384c2.54 0 4.65 1.392 5.66 3.504l.1-3.264zm-5.69 11.76c3.19 0 5.52-2.376 5.52-5.616 0-3.24-2.35-5.64-5.52-5.64-3.19 0-5.59 2.448-5.59 5.64 0 3.192 2.4 5.616 5.59 5.616zm10.8-14.64v-1.32h1.12v1.32h-1.12zm.19 15.84v-12.96h.77V841h-.77zm11.29-13.2c3.14 0 5.09 2.208 5.09 5.544V841h-.77v-7.536c0-3.072-1.68-4.944-4.46-4.944-2.64 0-4.9 2.28-4.9 4.944V841h-.77v-12.96h.6l.15 3c.86-1.92 2.83-3.24 5.06-3.24zm20.49.24h.57v11.064c0 4.2-2.3 6.744-6.12 6.744-2.9 0-4.94-1.464-5.73-3.96h.76c.77 2.064 2.6 3.24 4.97 3.24 3.31 0 5.38-2.232 5.38-5.952v-1.968c-1.01 2.04-3.07 3.336-5.59 3.336-3.58 0-6.32-2.736-6.32-6.36s2.76-6.384 6.32-6.384c2.54 0 4.65 1.392 5.66 3.504l.1-3.264zm-5.69 11.76c3.19 0 5.52-2.376 5.52-5.616 0-3.24-2.35-5.64-5.52-5.64-3.19 0-5.59 2.448-5.59 5.64 0 3.192 2.4 5.616 5.59 5.616zm21.95.48h1.63v.744h-1.7c-2.43 0-3.89-1.488-3.89-3.96v-8.304h-2.98v-.696h2.98v-3.816h.77v3.816h4.7v.696h-4.7v8.28c0 2.04 1.15 3.24 3.19 3.24zm10.15-12.48c3.14 0 5.09 2.136 5.09 5.544V841h-.77v-7.536c0-3.072-1.68-4.944-4.47-4.944-2.64 0-4.89 2.28-4.89 4.944V841h-.77v-17.52h.77v7.512a5.572 5.572 0 0 1 5.04-3.192zm21.3 6.648c0 .096 0 .216-.02.312h-12.1c.12 3.312 2.55 5.736 5.74 5.736 2.3 0 4.13-1.176 5.16-3.192h.81c-1.22 2.568-3.31 3.96-5.97 3.96-3.7 0-6.48-2.904-6.48-6.744 0-3.816 2.78-6.72 6.48-6.72 3.74 0 6.38 2.904 6.38 6.648zm-6.38-5.904c-3.12 0-5.5 2.304-5.71 5.496h11.32c-.19-3.288-2.56-5.496-5.61-5.496zm9.66-3.384v-1.32h1.13v1.32h-1.13zm.2 15.84v-12.96h.76V841h-.76zm10.81-12.984h1.13v.744h-1.18c-2.71 0-4.51 2.088-4.51 4.944V841h-.77v-12.96h.6l.12 2.952c.82-1.824 2.42-2.976 4.61-2.976zm21.59 6.432c0 .096 0 .216-.02.312h-12.1c.12 3.312 2.55 5.736 5.74 5.736 2.3 0 4.13-1.176 5.16-3.192h.82c-1.23 2.568-3.32 3.96-5.98 3.96-3.7 0-6.48-2.904-6.48-6.744 0-3.816 2.78-6.72 6.48-6.72 3.74 0 6.38 2.904 6.38 6.648zm-6.38-5.904c-3.12 0-5.5 2.304-5.71 5.496h11.33c-.2-3.288-2.57-5.496-5.62-5.496zM3193.67 841h-.89l-4.66-6.264-4.68 6.264h-.86l5.06-6.792-4.58-6.168h.89l4.17 5.616 4.18-5.616h.89l-4.61 6.168 5.09 6.792zm9.29-13.2c3.84 0 6.58 2.904 6.58 6.72 0 3.84-2.74 6.744-6.58 6.744-2.64 0-4.82-1.44-5.88-3.6v7.92h-.77V828.04h.6l.15 3.408c1.05-2.208 3.26-3.648 5.9-3.648zm-.05 12.72c3.39 0 5.86-2.544 5.86-6s-2.47-5.976-5.86-5.976c-3.33 0-5.85 2.568-5.85 5.976s2.52 6 5.85 6zm21.97-6.072c0 .096 0 .216-.03.312h-12.09c.12 3.312 2.54 5.736 5.73 5.736 2.31 0 4.13-1.176 5.16-3.192h.82c-1.22 2.568-3.31 3.96-5.98 3.96-3.69 0-6.48-2.904-6.48-6.744 0-3.816 2.79-6.72 6.48-6.72 3.75 0 6.39 2.904 6.39 6.648zm-6.39-5.904c-3.12 0-5.49 2.304-5.71 5.496h11.33c-.19-3.288-2.57-5.496-5.62-5.496zm15.19-.528h1.13v.744h-1.18c-2.71 0-4.51 2.088-4.51 4.944V841h-.77v-12.96h.6l.12 2.952c.82-1.824 2.43-2.976 4.61-2.976zm8.64 12.264h1.63v.744h-1.7c-2.43 0-3.89-1.488-3.89-3.96v-8.304h-2.98v-.696h2.98v-3.816h.77v3.816h4.7v.696h-4.7v8.28c0 2.04 1.15 3.24 3.19 3.24zm4.14-15.12v-1.32h1.13v1.32h-1.13zm.2 15.84v-12.96h.76V841h-.76zm9.2.264c-2.93 0-4.73-1.44-4.94-3.792h.77c.19 1.944 1.75 3.072 4.2 3.072 2.47 0 4.1-1.176 4.1-2.976 0-2.232-2.11-2.64-4.25-3-2.25-.384-4.56-.768-4.56-3.312 0-2.064 1.85-3.456 4.59-3.456 2.76 0 4.51 1.392 4.63 3.624h-.72c-.15-1.824-1.56-2.928-3.91-2.928-2.31 0-3.84 1.104-3.84 2.736 0 1.944 1.87 2.256 3.98 2.616 2.28.36 4.85.84 4.85 3.696 0 2.232-1.97 3.72-4.9 3.72zm20.16-6.816c0 .096 0 .216-.03.312h-12.09c.12 3.312 2.54 5.736 5.73 5.736 2.31 0 4.13-1.176 5.16-3.192h.82c-1.22 2.568-3.31 3.96-5.98 3.96-3.69 0-6.48-2.904-6.48-6.744 0-3.816 2.79-6.72 6.48-6.72 3.75 0 6.39 2.904 6.39 6.648zm-6.39-5.904c-3.12 0-5.49 2.304-5.71 5.496h11.33c-.19-3.288-2.57-5.496-5.62-5.496zm20.83 11.736h1.63v.744h-1.7c-2.43 0-3.89-1.488-3.89-3.96v-8.304h-2.98v-.696h2.98v-3.816h.77v3.816h4.7v.696h-4.7v8.28c0 2.04 1.15 3.24 3.19 3.24zm9.72.984c-3.84 0-6.75-2.88-6.75-6.744s2.91-6.72 6.75-6.72c3.86 0 6.74 2.88 6.74 6.72 0 3.864-2.88 6.744-6.74 6.744zm0-.744c3.43 0 5.95-2.568 5.95-6 0-3.408-2.52-5.976-5.95-5.976s-5.98 2.544-5.98 5.976 2.57 6 5.98 6zm-579.91 18.52h.58v11.064c0 4.2-2.31 6.744-6.12 6.744-2.91 0-4.95-1.464-5.74-3.96h.77c.77 2.064 2.59 3.24 4.97 3.24 3.31 0 5.37-2.232 5.37-5.952v-1.968c-1 2.04-3.07 3.336-5.59 3.336-3.57 0-6.31-2.736-6.31-6.36s2.76-6.384 6.31-6.384c2.55 0 4.66 1.392 5.67 3.504l.09-3.264zm-5.69 11.76c3.2 0 5.52-2.376 5.52-5.616 0-3.24-2.35-5.64-5.52-5.64-3.19 0-5.59 2.448-5.59 5.64 0 3.192 2.4 5.616 5.59 5.616zm22.73-5.352c0 .096 0 .216-.03.312h-12.09c.12 3.312 2.54 5.736 5.73 5.736 2.31 0 4.13-1.176 5.16-3.192h.82c-1.23 2.568-3.31 3.96-5.98 3.96-3.69 0-6.48-2.904-6.48-6.744 0-3.816 2.79-6.72 6.48-6.72 3.75 0 6.39 2.904 6.39 6.648zm-6.39-5.904c-3.12 0-5.49 2.304-5.71 5.496h11.33c-.19-3.288-2.57-5.496-5.62-5.496zm15.67-.744c3.14 0 5.09 2.208 5.09 5.544V872h-.77v-7.536c0-3.072-1.68-4.944-4.46-4.944-2.64 0-4.9 2.28-4.9 4.944V872h-.77v-12.96h.6l.15 3c.86-1.92 2.83-3.24 5.06-3.24zm21.3 6.648c0 .096 0 .216-.02.312h-12.1c.12 3.312 2.55 5.736 5.74 5.736 2.3 0 4.13-1.176 5.16-3.192h.81c-1.22 2.568-3.31 3.96-5.97 3.96-3.7 0-6.48-2.904-6.48-6.744 0-3.816 2.78-6.72 6.48-6.72 3.74 0 6.38 2.904 6.38 6.648zm-6.38-5.904c-3.12 0-5.5 2.304-5.71 5.496h11.32c-.19-3.288-2.56-5.496-5.61-5.496zm15.19-.528h1.12v.744h-1.17c-2.71 0-4.51 2.088-4.51 4.944V872h-.77v-12.96h.6l.12 2.952c.81-1.824 2.42-2.976 4.61-2.976zm14.65.024.65.024v12.96h-.68l-.07-3.384c-1.05 2.184-3.21 3.624-5.93 3.624-3.76 0-6.6-2.904-6.6-6.72 0-3.84 2.84-6.744 6.6-6.744 2.72 0 4.9 1.44 5.93 3.648l.1-3.408zm-5.98 12.48c3.39 0 5.86-2.52 5.86-5.976s-2.47-6-5.86-6c-3.36 0-5.88 2.592-5.88 6s2.52 5.976 5.88 5.976zm16.2-.24h1.64v.744h-1.71c-2.42 0-3.89-1.488-3.89-3.96v-8.304h-2.97v-.696h2.97v-3.816h.77v3.816h4.71v.696h-4.71v8.28c0 2.04 1.15 3.24 3.19 3.24zm15.87-5.832c0 .096 0 .216-.02.312h-12.1c.12 3.312 2.54 5.736 5.74 5.736 2.3 0 4.12-1.176 5.16-3.192h.81c-1.22 2.568-3.31 3.96-5.97 3.96-3.7 0-6.48-2.904-6.48-6.744 0-3.816 2.78-6.72 6.48-6.72 3.74 0 6.38 2.904 6.38 6.648zm-6.38-5.904c-3.12 0-5.5 2.304-5.72 5.496h11.33c-.19-3.288-2.57-5.496-5.61-5.496zm28.34 5.904c0 .096 0 .216-.02.312h-12.1c.12 3.312 2.54 5.736 5.74 5.736 2.3 0 4.12-1.176 5.16-3.192h.81c-1.22 2.568-3.31 3.96-5.97 3.96-3.7 0-6.48-2.904-6.48-6.744 0-3.816 2.78-6.72 6.48-6.72 3.74 0 6.38 2.904 6.38 6.648zm-6.38-5.904c-3.12 0-5.5 2.304-5.72 5.496h11.33c-.19-3.288-2.57-5.496-5.61-5.496zM2851.57 872h-.89l-4.65-6.264-4.68 6.264h-.87l5.07-6.792-4.59-6.168h.89l4.18 5.616 4.17-5.616h.89l-4.61 6.168 5.09 6.792zm7.5-.72h1.63v.744h-1.7c-2.43 0-3.89-1.488-3.89-3.96v-8.304h-2.98v-.696h2.98v-3.816h.77v3.816h4.7v.696h-4.7v8.28c0 2.04 1.15 3.24 3.19 3.24zm9.66-12.264h1.13v.744h-1.17c-2.72 0-4.52 2.088-4.52 4.944V872h-.76v-12.96h.6l.12 2.952c.81-1.824 2.42-2.976 4.6-2.976zm14.66.024.64.024v12.96h-.67l-.07-3.384c-1.06 2.184-3.22 3.624-5.93 3.624-3.77 0-6.6-2.904-6.6-6.72 0-3.84 2.83-6.744 6.6-6.744 2.71 0 4.9 1.44 5.93 3.648l.1-3.408zm-5.98 12.48c3.38 0 5.86-2.52 5.86-5.976s-2.48-6-5.86-6c-3.36 0-5.88 2.592-5.88 6s2.52 5.976 5.88 5.976zm16.95.744c-3.84 0-6.75-2.88-6.75-6.744s2.91-6.72 6.75-6.72c3.86 0 6.74 2.88 6.74 6.72 0 3.864-2.88 6.744-6.74 6.744zm0-.744c3.43 0 5.95-2.568 5.95-6 0-3.408-2.52-5.976-5.95-5.976s-5.98 2.544-5.98 5.976 2.57 6 5.98 6zm15.65-12.504h1.13v.744h-1.18c-2.71 0-4.51 2.088-4.51 4.944V872h-.77v-12.96h.6l.12 2.952c.82-1.824 2.42-2.976 4.61-2.976zm14.48-4.536h.77V872h-.62l-.12-3.288c-1.06 2.136-3.2 3.552-5.88 3.552-3.8 0-6.6-2.904-6.6-6.744 0-3.816 2.8-6.72 6.6-6.72 2.66 0 4.8 1.392 5.85 3.528v-7.848zm-5.81 17.04c3.39 0 5.86-2.544 5.86-6 0-3.432-2.47-5.976-5.86-5.976-3.36 0-5.88 2.568-5.88 5.976s2.52 6 5.88 6zm11.12-15.36v-1.32h1.13v1.32h-1.13zm.19 15.84v-12.96h.77V872h-.77zm11.29-13.2c3.15 0 5.09 2.208 5.09 5.544V872h-.77v-7.536c0-3.072-1.68-4.944-4.46-4.944-2.64 0-4.9 2.28-4.9 4.944V872h-.76v-12.96h.6l.14 3c.86-1.92 2.83-3.24 5.06-3.24zm21.04.24.65.024v12.96h-.67l-.07-3.384c-1.06 2.184-3.22 3.624-5.93 3.624-3.77 0-6.6-2.904-6.6-6.72 0-3.84 2.83-6.744 6.6-6.744 2.71 0 4.9 1.44 5.93 3.648l.09-3.408zm-5.97 12.48c3.38 0 5.85-2.52 5.85-5.976s-2.47-6-5.85-6c-3.36 0-5.88 2.592-5.88 6s2.52 5.976 5.88 5.976zm16.68-12.504h1.13v.744h-1.18c-2.71 0-4.51 2.088-4.51 4.944V872h-.77v-12.96h.6l.12 2.952c.82-1.824 2.43-2.976 4.61-2.976zm13.77.024h.82l-6.6 14.112c-1.25 2.688-2.38 3.432-4.44 3.432h-1.01v-.72h.96c1.78 0 2.67-.528 3.79-2.928l.77-1.656-6.05-12.24h.87l5.59 11.4 5.3-11.4zm15.13-.024h1.13v.744h-1.18c-2.71 0-4.51 2.088-4.51 4.944V872h-.77v-12.96h.6l.12 2.952c.82-1.824 2.43-2.976 4.61-2.976zm14.92 6.432c0 .096 0 .216-.03.312h-12.09c.12 3.312 2.54 5.736 5.73 5.736 2.31 0 4.13-1.176 5.16-3.192h.82c-1.23 2.568-3.31 3.96-5.98 3.96-3.69 0-6.48-2.904-6.48-6.744 0-3.816 2.79-6.72 6.48-6.72 3.75 0 6.39 2.904 6.39 6.648zm-6.39-5.904c-3.12 0-5.49 2.304-5.71 5.496h11.33c-.19-3.288-2.57-5.496-5.62-5.496zm14.47 11.736h1.64v.744h-1.71c-2.42 0-3.89-1.488-3.89-3.96v-8.304H3018v-.696h2.97v-3.816h.77v3.816h4.71v.696h-4.71v8.28c0 2.04 1.15 3.24 3.19 3.24zm9.55.984c-3.33 0-5.47-2.232-5.47-5.688v-7.536h.77v7.44c0 3.096 1.8 5.04 4.7 5.04 2.91 0 4.68-1.944 4.68-5.04v-7.44h.77v7.536c0 3.456-2.11 5.688-5.45 5.688zm15.26-13.248h1.13v.744h-1.18c-2.71 0-4.51 2.088-4.51 4.944V872h-.77v-12.96h.6l.12 2.952c.82-1.824 2.43-2.976 4.61-2.976zm9.6-.216c3.14 0 5.09 2.208 5.09 5.544V872h-.77v-7.536c0-3.072-1.68-4.944-4.46-4.944-2.64 0-4.9 2.28-4.9 4.944V872h-.77v-12.96h.6l.15 3c.86-1.92 2.83-3.24 5.06-3.24zm13.29 13.464c-2.93 0-4.73-1.44-4.95-3.792h.77c.19 1.944 1.75 3.072 4.2 3.072 2.47 0 4.1-1.176 4.1-2.976 0-2.232-2.11-2.64-4.24-3-2.26-.384-4.56-.768-4.56-3.312 0-2.064 1.84-3.456 4.58-3.456 2.76 0 4.51 1.392 4.63 3.624h-.72c-.14-1.824-1.56-2.928-3.91-2.928-2.3 0-3.84 1.104-3.84 2.736 0 1.944 1.87 2.256 3.98 2.616 2.28.36 4.85.84 4.85 3.696 0 2.232-1.97 3.72-4.89 3.72zm20.76 0c-3.84 0-6.74-2.88-6.74-6.744s2.9-6.72 6.74-6.72c3.86 0 6.74 2.88 6.74 6.72 0 3.864-2.88 6.744-6.74 6.744zm0-.744c3.43 0 5.95-2.568 5.95-6 0-3.408-2.52-5.976-5.95-5.976s-5.98 2.544-5.98 5.976 2.57 6 5.98 6zm16.13-12.72c3.14 0 5.09 2.208 5.09 5.544V872h-.77v-7.536c0-3.072-1.68-4.944-4.46-4.944-2.64 0-4.9 2.28-4.9 4.944V872h-.77v-12.96h.6l.15 3c.86-1.92 2.83-3.24 5.06-3.24zm25.62.24h.82l-6.6 14.112c-1.25 2.688-2.38 3.432-4.44 3.432h-1.01v-.72h.96c1.77 0 2.66-.528 3.79-2.928l.77-1.656-6.05-12.24h.86l5.6 11.4 5.3-11.4zm9.01 13.224c-3.84 0-6.74-2.88-6.74-6.744s2.9-6.72 6.74-6.72c3.87 0 6.75 2.88 6.75 6.72 0 3.864-2.88 6.744-6.75 6.744zm0-.744c3.44 0 5.96-2.568 5.96-6 0-3.408-2.52-5.976-5.96-5.976-3.43 0-5.97 2.544-5.97 5.976s2.57 6 5.97 6zm15.53.744c-3.33 0-5.47-2.232-5.47-5.688v-7.536h.77v7.44c0 3.096 1.8 5.04 4.7 5.04 2.91 0 4.68-1.944 4.68-5.04v-7.44h.77v7.536c0 3.456-2.11 5.688-5.45 5.688zm15.27-13.248h1.12v.744h-1.17c-2.71 0-4.51 2.088-4.51 4.944V872h-.77v-12.96h.6l.12 2.952c.81-1.824 2.42-2.976 4.61-2.976zm9.66-2.856v-1.32h1.13v1.32h-1.13zm.2 15.84v-12.96h.76V872h-.76zm11.29-13.2c3.14 0 5.09 2.208 5.09 5.544V872h-.77v-7.536c0-3.072-1.68-4.944-4.47-4.944-2.64 0-4.89 2.28-4.89 4.944V872h-.77v-12.96h.6l.14 3c.87-1.92 2.84-3.24 5.07-3.24zm18.98.24h.79l-5.76 12.96h-.65l-5.9-12.96h.82l5.4 11.88 5.3-11.88zm15.23 6.408c0 .096 0 .216-.02.312h-12.1c.12 3.312 2.55 5.736 5.74 5.736 2.3 0 4.13-1.176 5.16-3.192h.82c-1.23 2.568-3.32 3.96-5.98 3.96-3.7 0-6.48-2.904-6.48-6.744 0-3.816 2.78-6.72 6.48-6.72 3.74 0 6.38 2.904 6.38 6.648zm-6.38-5.904c-3.12 0-5.5 2.304-5.71 5.496h11.33c-.2-3.288-2.57-5.496-5.62-5.496zm13.58 12.72c-2.93 0-4.73-1.44-4.94-3.792h.76c.2 1.944 1.76 3.072 4.2 3.072 2.48 0 4.11-1.176 4.11-2.976 0-2.232-2.11-2.64-4.25-3-2.26-.384-4.56-.768-4.56-3.312 0-2.064 1.85-3.456 4.58-3.456 2.76 0 4.52 1.392 4.64 3.624h-.72c-.15-1.824-1.56-2.928-3.92-2.928-2.3 0-3.84 1.104-3.84 2.736 0 1.944 1.88 2.256 3.99 2.616 2.28.36 4.85.84 4.85 3.696 0 2.232-1.97 3.72-4.9 3.72zm13.15-.984h1.63v.744h-1.7c-2.43 0-3.89-1.488-3.89-3.96v-8.304h-2.98v-.696h2.98v-3.816h.77v3.816h4.7v.696h-4.7v8.28c0 2.04 1.15 3.24 3.19 3.24zm18.43-12.48c2.61 0 4.37 2.016 4.37 5.04V872h-.77v-7.992c0-2.712-1.47-4.488-3.7-4.488-2.59 0-4.37 1.992-4.39 4.92V872h-.74v-7.992c0-2.76-1.47-4.488-3.72-4.488-2.57 0-4.35 1.992-4.37 4.92V872h-.77v-12.96h.6l.12 2.664c.82-1.8 2.47-2.904 4.56-2.904 2.06 0 3.58 1.272 4.1 3.312.75-2.04 2.5-3.312 4.71-3.312zm20.59 6.648c0 .096 0 .216-.02.312h-12.1c.12 3.312 2.55 5.736 5.74 5.736 2.3 0 4.13-1.176 5.16-3.192h.81c-1.22 2.568-3.31 3.96-5.97 3.96-3.7 0-6.48-2.904-6.48-6.744 0-3.816 2.78-6.72 6.48-6.72 3.74 0 6.38 2.904 6.38 6.648zm-6.38-5.904c-3.12 0-5.5 2.304-5.71 5.496h11.32c-.19-3.288-2.56-5.496-5.61-5.496zm15.66-.744c3.15 0 5.09 2.208 5.09 5.544V872h-.77v-7.536c0-3.072-1.68-4.944-4.46-4.944-2.64 0-4.9 2.28-4.9 4.944V872h-.76v-12.96h.6l.14 3c.86-1.92 2.83-3.24 5.06-3.24zm14.26 12.48h1.63v.744h-1.71c-2.42 0-3.88-1.488-3.88-3.96v-8.304h-2.98v-.696h2.98v-3.816h.76v3.816h4.71v.696h-4.71v8.28c0 2.04 1.16 3.24 3.2 3.24zm3.62.72v-1.488h1.15V872h-1.15zm-587.11 14.2h.84l-5.4 16.8h-.65l-5.38-14.52-5.28 14.52h-.64l-5.5-16.8h.84l4.99 15.432 5.38-14.784h.41l5.47 14.784 4.92-15.432zm14.98 10.248c0 .096 0 .216-.02.312h-12.1c.12 3.312 2.55 5.736 5.74 5.736 2.3 0 4.13-1.176 5.16-3.192h.81c-1.22 2.568-3.31 3.96-5.97 3.96-3.7 0-6.48-2.904-6.48-6.744 0-3.816 2.78-6.72 6.48-6.72 3.74 0 6.38 2.904 6.38 6.648zm-6.38-5.904c-3.12 0-5.5 2.304-5.71 5.496h11.32c-.19-3.288-2.56-5.496-5.61-5.496zm28.08-.504.65.024v12.96h-.67l-.08-3.384c-1.05 2.184-3.21 3.624-5.92 3.624-3.77 0-6.6-2.904-6.6-6.72 0-3.84 2.83-6.744 6.6-6.744 2.71 0 4.89 1.44 5.92 3.648l.1-3.408zm-5.98 12.48c3.39 0 5.86-2.52 5.86-5.976s-2.47-6-5.86-6c-3.36 0-5.88 2.592-5.88 6s2.52 5.976 5.88 5.976zm16.69-12.504h1.13v.744h-1.18c-2.71 0-4.51 2.088-4.51 4.944V903h-.77v-12.96h.6l.12 2.952c.82-1.824 2.42-2.976 4.61-2.976zm14.91 6.432c0 .096 0 .216-.02.312h-12.1c.12 3.312 2.55 5.736 5.74 5.736 2.3 0 4.13-1.176 5.16-3.192h.82c-1.23 2.568-3.32 3.96-5.98 3.96-3.7 0-6.48-2.904-6.48-6.744 0-3.816 2.78-6.72 6.48-6.72 3.74 0 6.38 2.904 6.38 6.648zm-6.38-5.904c-3.12 0-5.5 2.304-5.71 5.496h11.33c-.2-3.288-2.57-5.496-5.62-5.496zm21.94-.528h1.12v.744h-1.17c-2.71 0-4.51 2.088-4.51 4.944V903h-.77v-12.96h.6l.12 2.952c.81-1.824 2.42-2.976 4.61-2.976zm14.91 6.432c0 .096 0 .216-.02.312h-12.1c.12 3.312 2.55 5.736 5.74 5.736 2.3 0 4.13-1.176 5.16-3.192h.81c-1.22 2.568-3.31 3.96-5.97 3.96-3.7 0-6.48-2.904-6.48-6.744 0-3.816 2.78-6.72 6.48-6.72 3.74 0 6.38 2.904 6.38 6.648zm-6.38-5.904c-3.12 0-5.5 2.304-5.71 5.496h11.32c-.19-3.288-2.56-5.496-5.61-5.496zm9.86 12.456v-17.52h.76V903h-.76zm17.22-6.552c0 .096 0 .216-.03.312h-12.09c.12 3.312 2.54 5.736 5.73 5.736 2.31 0 4.13-1.176 5.16-3.192h.82c-1.22 2.568-3.31 3.96-5.98 3.96-3.69 0-6.48-2.904-6.48-6.744 0-3.816 2.79-6.72 6.48-6.72 3.75 0 6.39 2.904 6.39 6.648zm-6.39-5.904c-3.12 0-5.49 2.304-5.71 5.496h11.33c-.19-3.288-2.57-5.496-5.62-5.496zm15.67-.744c3.14 0 5.09 2.208 5.09 5.544V903h-.77v-7.536c0-3.072-1.68-4.944-4.46-4.944-2.64 0-4.9 2.28-4.9 4.944V903h-.77v-12.96h.6l.15 3c.86-1.92 2.83-3.24 5.06-3.24zm14.25 12.48h1.63v.744h-1.7c-2.42 0-3.89-1.488-3.89-3.96v-8.304h-2.97v-.696h2.97v-3.816h.77v3.816h4.7v.696h-4.7v8.28c0 2.04 1.15 3.24 3.19 3.24zm4.34.72v-17.52h.77V903h-.77zm17.22-6.552c0 .096 0 .216-.02.312h-12.1c.12 3.312 2.55 5.736 5.74 5.736 2.3 0 4.13-1.176 5.16-3.192h.81c-1.22 2.568-3.31 3.96-5.97 3.96-3.7 0-6.48-2.904-6.48-6.744 0-3.816 2.78-6.72 6.48-6.72 3.74 0 6.38 2.904 6.38 6.648zm-6.38-5.904c-3.12 0-5.5 2.304-5.71 5.496h11.32c-.19-3.288-2.56-5.496-5.61-5.496zm13.58 12.72c-2.93 0-4.73-1.44-4.95-3.792h.77c.19 1.944 1.75 3.072 4.2 3.072 2.47 0 4.1-1.176 4.1-2.976 0-2.232-2.11-2.64-4.24-3-2.26-.384-4.56-.768-4.56-3.312 0-2.064 1.84-3.456 4.58-3.456 2.76 0 4.51 1.392 4.63 3.624h-.72c-.14-1.824-1.56-2.928-3.91-2.928-2.3 0-3.84 1.104-3.84 2.736 0 1.944 1.87 2.256 3.98 2.616 2.28.36 4.85.84 4.85 3.696 0 2.232-1.97 3.72-4.89 3.72zm12.14 0c-2.93 0-4.73-1.44-4.95-3.792h.77c.19 1.944 1.75 3.072 4.2 3.072 2.47 0 4.1-1.176 4.1-2.976 0-2.232-2.11-2.64-4.24-3-2.26-.384-4.56-.768-4.56-3.312 0-2.064 1.84-3.456 4.58-3.456 2.76 0 4.51 1.392 4.63 3.624h-.72c-.14-1.824-1.56-2.928-3.91-2.928-2.3 0-3.84 1.104-3.84 2.736 0 1.944 1.87 2.256 3.98 2.616 2.28.36 4.85.84 4.85 3.696 0 2.232-1.97 3.72-4.89 3.72zm14.98-16.104v-1.32h1.12v1.32h-1.12zm.19 15.84v-12.96h.77V903h-.77zm11.29-13.2c3.14 0 5.09 2.208 5.09 5.544V903h-.77v-7.536c0-3.072-1.68-4.944-4.46-4.944-2.64 0-4.9 2.28-4.9 4.944V903h-.77v-12.96h.6l.15 3c.86-1.92 2.83-3.24 5.06-3.24zm21.91 13.464c-3.84 0-6.75-2.88-6.75-6.744s2.91-6.72 6.75-6.72c3.86 0 6.74 2.88 6.74 6.72 0 3.864-2.88 6.744-6.74 6.744zm0-.744c3.43 0 5.95-2.568 5.95-6 0-3.408-2.52-5.976-5.95-5.976s-5.98 2.544-5.98 5.976 2.57 6 5.98 6zm15.53.744c-3.34 0-5.47-2.232-5.47-5.688v-7.536h.76v7.44c0 3.096 1.8 5.04 4.71 5.04 2.9 0 4.68-1.944 4.68-5.04v-7.44h.77v7.536c0 3.456-2.12 5.688-5.45 5.688zm15.26-13.248h1.13v.744h-1.18c-2.71 0-4.51 2.088-4.51 4.944V903h-.77v-12.96h.6l.12 2.952c.82-1.824 2.43-2.976 4.61-2.976zm16.51-.216c3.84 0 6.57 2.904 6.57 6.72 0 3.84-2.73 6.744-6.57 6.744-2.64 0-4.83-1.44-5.88-3.6v7.92h-.77V890.04h.6l.14 3.408c1.06-2.208 3.27-3.648 5.91-3.648zm-.05 12.72c3.38 0 5.85-2.544 5.85-6s-2.47-5.976-5.85-5.976c-3.34 0-5.86 2.568-5.86 5.976s2.52 6 5.86 6zm15.43.744c-3.33 0-5.47-2.232-5.47-5.688v-7.536h.77v7.44c0 3.096 1.8 5.04 4.7 5.04 2.91 0 4.68-1.944 4.68-5.04v-7.44h.77v7.536c0 3.456-2.11 5.688-5.45 5.688zm15.27-13.248h1.12v.744h-1.17c-2.71 0-4.51 2.088-4.51 4.944V903h-.77v-12.96h.6l.12 2.952c.81-1.824 2.42-2.976 4.61-2.976zm7.39 13.248c-2.93 0-4.73-1.44-4.95-3.792h.77c.19 1.944 1.75 3.072 4.2 3.072 2.47 0 4.11-1.176 4.11-2.976 0-2.232-2.12-2.64-4.25-3-2.26-.384-4.56-.768-4.56-3.312 0-2.064 1.85-3.456 4.58-3.456 2.76 0 4.51 1.392 4.63 3.624h-.72c-.14-1.824-1.56-2.928-3.91-2.928-2.3 0-3.84 1.104-3.84 2.736 0 1.944 1.87 2.256 3.99 2.616 2.28.36 4.84.84 4.84 3.696 0 2.232-1.96 3.72-4.89 3.72zm13.63 0c-3.34 0-5.48-2.232-5.48-5.688v-7.536h.77v7.44c0 3.096 1.8 5.04 4.71 5.04 2.9 0 4.68-1.944 4.68-5.04v-7.44h.76v7.536c0 3.456-2.11 5.688-5.44 5.688zm9.74-16.104v-1.32h1.12v1.32h-1.12zm.19 15.84v-12.96h.77V903h-.77zm10.33-.72h1.63v.744h-1.7c-2.42 0-3.89-1.488-3.89-3.96v-8.304h-2.97v-.696h2.97v-3.816h.77v3.816h4.7v.696h-4.7v8.28c0 2.04 1.15 3.24 3.19 3.24zm16.68.984c-3.84 0-6.74-2.88-6.74-6.744s2.9-6.72 6.74-6.72c3.87 0 6.75 2.88 6.75 6.72 0 3.864-2.88 6.744-6.75 6.744zm0-.744c3.43 0 5.95-2.568 5.95-6 0-3.408-2.52-5.976-5.95-5.976s-5.97 2.544-5.97 5.976 2.56 6 5.97 6zm16.23-12.456v.696h-4.6V903h-.77v-12.24h-2.81v-.696h2.81v-1.008c0-3 1.15-4.176 4.17-4.176h1.2v.672h-1.08c-2.66 0-3.55.888-3.55 3.504v1.008h4.63zm20.43 6.384c0 .096 0 .216-.02.312h-12.1c.12 3.312 2.55 5.736 5.74 5.736 2.3 0 4.13-1.176 5.16-3.192h.81c-1.22 2.568-3.31 3.96-5.97 3.96-3.7 0-6.48-2.904-6.48-6.744 0-3.816 2.78-6.72 6.48-6.72 3.74 0 6.38 2.904 6.38 6.648zm-6.38-5.904c-3.12 0-5.5 2.304-5.71 5.496h11.32c-.19-3.288-2.56-5.496-5.61-5.496zm15.81-.48v.696h-4.6V903h-.77v-12.24h-2.81v-.696h2.81v-1.008c0-3 1.15-4.176 4.17-4.176h1.2v.672h-1.08c-2.66 0-3.55.888-3.55 3.504v1.008h4.63zm8.84 0v.696h-4.61V903h-.77v-12.24h-2.8v-.696h2.8v-1.008c0-3 1.16-4.176 4.18-4.176h1.2v.672h-1.08c-2.66 0-3.55.888-3.55 3.504v1.008h4.63zm2.48-2.904v-1.32h1.12v1.32h-1.12zm.19 15.84v-12.96h.77V903h-.77zm10.98.264c-3.77 0-6.65-2.904-6.65-6.744 0-3.864 2.86-6.72 6.65-6.72 2.88 0 5.11 1.608 6.02 4.08h-.77c-.91-2.088-2.88-3.336-5.25-3.336-3.36 0-5.88 2.568-5.88 5.976s2.54 6 5.88 6c2.35 0 4.32-1.248 5.28-3.384h.79c-.96 2.544-3.26 4.128-6.07 4.128zm9.17-16.104v-1.32h1.13v1.32h-1.13zm.19 15.84v-12.96h.77V903h-.77zm17.22-6.552c0 .096 0 .216-.02.312h-12.1c.12 3.312 2.55 5.736 5.74 5.736 2.3 0 4.13-1.176 5.16-3.192h.81c-1.22 2.568-3.31 3.96-5.97 3.96-3.7 0-6.48-2.904-6.48-6.744 0-3.816 2.78-6.72 6.48-6.72 3.74 0 6.38 2.904 6.38 6.648zm-6.38-5.904c-3.12 0-5.5 2.304-5.71 5.496h11.32c-.19-3.288-2.56-5.496-5.61-5.496zm15.67-.744c3.14 0 5.08 2.208 5.08 5.544V903h-.76v-7.536c0-3.072-1.68-4.944-4.47-4.944-2.64 0-4.89 2.28-4.89 4.944V903h-.77v-12.96h.6l.14 3a5.564 5.564 0 0 1 5.07-3.24zm15.06 13.464c-3.77 0-6.65-2.904-6.65-6.744 0-3.864 2.86-6.72 6.65-6.72 2.88 0 5.11 1.608 6.02 4.08h-.77c-.91-2.088-2.88-3.336-5.25-3.336-3.36 0-5.88 2.568-5.88 5.976s2.54 6 5.88 6c2.35 0 4.32-1.248 5.28-3.384h.79c-.96 2.544-3.26 4.128-6.07 4.128zm19.21-13.224h.81l-6.6 14.112c-1.25 2.688-2.37 3.432-4.44 3.432h-1.01v-.72h.96c1.78 0 2.67-.528 3.8-2.928l.76-1.656-6.04-12.24h.86l5.59 11.4 5.31-11.4zm1.55 15.576v-.648c.58-.384.77-.864.77-1.968h-.82v-1.464h1.37v1.368c0 1.512-.38 2.184-1.32 2.712zm23.33-9.168c0 .096 0 .216-.02.312h-12.1c.12 3.312 2.54 5.736 5.74 5.736 2.3 0 4.12-1.176 5.16-3.192h.81c-1.22 2.568-3.31 3.96-5.97 3.96-3.7 0-6.48-2.904-6.48-6.744 0-3.816 2.78-6.72 6.48-6.72 3.74 0 6.38 2.904 6.38 6.648zm-6.38-5.904c-3.12 0-5.5 2.304-5.72 5.496h11.33c-.19-3.288-2.57-5.496-5.61-5.496zm9.85 12.456v-17.52h.77V903h-.77zm5.3-15.84v-1.32h1.13v1.32h-1.13zm.19 15.84v-12.96h.77V903h-.77zm19.57-13.2c2.62 0 4.37 2.016 4.37 5.04V903h-.77v-7.992c0-2.712-1.46-4.488-3.69-4.488-2.6 0-4.37 1.992-4.4 4.92V903h-.74v-7.992c0-2.76-1.46-4.488-3.72-4.488-2.57 0-4.34 1.992-4.37 4.92V903h-.77v-12.96h.6l.12 2.664c.82-1.8 2.48-2.904 4.56-2.904 2.07 0 3.58 1.272 4.11 3.312.74-2.04 2.49-3.312 4.7-3.312zm8.67-2.64v-1.32h1.12v1.32h-1.12zm.19 15.84v-12.96h.77V903h-.77zm11.29-13.2c3.15 0 5.09 2.208 5.09 5.544V903h-.77v-7.536c0-3.072-1.68-4.944-4.46-4.944-2.64 0-4.9 2.28-4.9 4.944V903h-.77v-12.96h.6l.15 3c.86-1.92 2.83-3.24 5.06-3.24zm21.04.24.65.024v12.96h-.67l-.08-3.384c-1.05 2.184-3.21 3.624-5.92 3.624-3.77 0-6.6-2.904-6.6-6.72 0-3.84 2.83-6.744 6.6-6.744 2.71 0 4.89 1.44 5.92 3.648l.1-3.408zm-5.98 12.48c3.39 0 5.86-2.52 5.86-5.976s-2.47-6-5.86-6c-3.36 0-5.88 2.592-5.88 6s2.52 5.976 5.88 5.976zm16.21-.24h1.63v.744h-1.7c-2.43 0-3.89-1.488-3.89-3.96v-8.304h-2.98v-.696h2.98v-3.816h.77v3.816h4.7v.696h-4.7v8.28c0 2.04 1.15 3.24 3.19 3.24zm4.15-15.12v-1.32h1.12v1.32h-1.12zm.19 15.84v-12.96h.77V903h-.77zm11.29-13.2c3.14 0 5.09 2.208 5.09 5.544V903h-.77v-7.536c0-3.072-1.68-4.944-4.46-4.944-2.64 0-4.9 2.28-4.9 4.944V903h-.77v-12.96h.6l.15 3c.86-1.92 2.83-3.24 5.06-3.24zm20.49.24h.57v11.064c0 4.2-2.3 6.744-6.12 6.744-2.9 0-4.94-1.464-5.73-3.96h.76c.77 2.064 2.6 3.24 4.97 3.24 3.31 0 5.38-2.232 5.38-5.952v-1.968c-1.01 2.04-3.07 3.336-5.59 3.336-3.58 0-6.32-2.736-6.32-6.36s2.76-6.384 6.32-6.384c2.54 0 4.65 1.392 5.66 3.504l.1-3.264zm-5.69 11.76c3.19 0 5.52-2.376 5.52-5.616 0-3.24-2.35-5.64-5.52-5.64-3.19 0-5.59 2.448-5.59 5.64 0 3.192 2.4 5.616 5.59 5.616zm21.95.48h1.63v.744h-1.7c-2.43 0-3.89-1.488-3.89-3.96v-8.304h-2.98v-.696h2.98v-3.816h.77v3.816h4.7v.696h-4.7v8.28c0 2.04 1.15 3.24 3.19 3.24zm10.15-12.48c3.14 0 5.09 2.136 5.09 5.544V903h-.77v-7.536c0-3.072-1.68-4.944-4.47-4.944-2.64 0-4.89 2.28-4.89 4.944V903h-.77v-17.52h.77v7.512a5.572 5.572 0 0 1 5.04-3.192zm21.3 6.648c0 .096 0 .216-.02.312h-12.1c.12 3.312 2.55 5.736 5.74 5.736 2.3 0 4.13-1.176 5.16-3.192h.81c-1.22 2.568-3.31 3.96-5.97 3.96-3.7 0-6.48-2.904-6.48-6.744 0-3.816 2.78-6.72 6.48-6.72 3.74 0 6.38 2.904 6.38 6.648zm-6.38-5.904c-3.12 0-5.5 2.304-5.71 5.496h11.32c-.19-3.288-2.56-5.496-5.61-5.496zM2715.16 920.8c3.14 0 5.09 2.136 5.09 5.544V934h-.77v-7.536c0-3.072-1.68-4.944-4.46-4.944-2.64 0-4.9 2.28-4.9 4.944V934h-.77v-17.52h.77v7.512a5.572 5.572 0 0 1 5.04-3.192zm14.77 13.464c-3.33 0-5.47-2.232-5.47-5.688v-7.536h.77v7.44c0 3.096 1.8 5.04 4.7 5.04 2.91 0 4.68-1.944 4.68-5.04v-7.44h.77v7.536c0 3.456-2.11 5.688-5.45 5.688zm15.27-13.248h1.12v.744h-1.17c-2.71 0-4.51 2.088-4.51 4.944V934h-.77v-12.96h.6l.12 2.952c.81-1.824 2.42-2.976 4.61-2.976zm14.48-4.536h.77V934h-.63l-.12-3.288c-1.05 2.136-3.19 3.552-5.88 3.552-3.79 0-6.6-2.904-6.6-6.744 0-3.816 2.81-6.72 6.6-6.72 2.67 0 4.8 1.392 5.86 3.528v-7.848zm-5.81 17.04c3.39 0 5.86-2.544 5.86-6 0-3.432-2.47-5.976-5.86-5.976-3.36 0-5.88 2.568-5.88 5.976s2.52 6 5.88 6zm11.31.48v-17.52h.77V934h-.77zm17.22-6.552c0 .096 0 .216-.02.312h-12.1c.12 3.312 2.54 5.736 5.74 5.736 2.3 0 4.12-1.176 5.16-3.192h.81c-1.22 2.568-3.31 3.96-5.97 3.96-3.7 0-6.48-2.904-6.48-6.744 0-3.816 2.78-6.72 6.48-6.72 3.74 0 6.38 2.904 6.38 6.648zm-6.38-5.904c-3.12 0-5.5 2.304-5.72 5.496h11.33c-.19-3.288-2.57-5.496-5.61-5.496zm13.58 12.72c-2.93 0-4.73-1.44-4.95-3.792h.77c.19 1.944 1.75 3.072 4.2 3.072 2.47 0 4.1-1.176 4.1-2.976 0-2.232-2.11-2.64-4.24-3-2.26-.384-4.56-.768-4.56-3.312 0-2.064 1.84-3.456 4.58-3.456 2.76 0 4.51 1.392 4.63 3.624h-.72c-.14-1.824-1.56-2.928-3.91-2.928-2.3 0-3.84 1.104-3.84 2.736 0 1.944 1.87 2.256 3.98 2.616 2.28.36 4.85.84 4.85 3.696 0 2.232-1.97 3.72-4.89 3.72zm19.38-.984h1.63v.744h-1.7c-2.42 0-3.89-1.488-3.89-3.96v-8.304h-2.97v-.696h2.97v-3.816h.77v3.816h4.7v.696h-4.7v8.28c0 2.04 1.15 3.24 3.19 3.24zm10.15-12.48c3.14 0 5.09 2.136 5.09 5.544V934h-.77v-7.536c0-3.072-1.68-4.944-4.47-4.944-2.64 0-4.89 2.28-4.89 4.944V934h-.77v-17.52h.77v7.512a5.572 5.572 0 0 1 5.04-3.192zm21.04.24.65.024v12.96h-.68l-.07-3.384c-1.05 2.184-3.21 3.624-5.93 3.624-3.76 0-6.6-2.904-6.6-6.72 0-3.84 2.84-6.744 6.6-6.744 2.72 0 4.9 1.44 5.93 3.648l.1-3.408zm-5.98 12.48c3.39 0 5.86-2.52 5.86-5.976s-2.47-6-5.86-6c-3.36 0-5.88 2.592-5.88 6s2.52 5.976 5.88 5.976zm16.21-.24h1.63v.744h-1.71c-2.42 0-3.88-1.488-3.88-3.96v-8.304h-2.98v-.696h2.98v-3.816h.76v3.816h4.71v.696h-4.71v8.28c0 2.04 1.16 3.24 3.2 3.24zm14.8.984c-2.92 0-4.72-1.44-4.94-3.792h.77c.19 1.944 1.75 3.072 4.2 3.072 2.47 0 4.1-1.176 4.1-2.976 0-2.232-2.11-2.64-4.25-3-2.25-.384-4.56-.768-4.56-3.312 0-2.064 1.85-3.456 4.59-3.456 2.76 0 4.51 1.392 4.63 3.624h-.72c-.14-1.824-1.56-2.928-3.91-2.928-2.31 0-3.84 1.104-3.84 2.736 0 1.944 1.87 2.256 3.98 2.616 2.28.36 4.85.84 4.85 3.696 0 2.232-1.97 3.72-4.9 3.72zm8.43-.264v-17.52h.76V934h-.76zm11.07.264c-3.84 0-6.74-2.88-6.74-6.744s2.9-6.72 6.74-6.72c3.87 0 6.75 2.88 6.75 6.72 0 3.864-2.88 6.744-6.75 6.744zm0-.744c3.43 0 5.95-2.568 5.95-6 0-3.408-2.52-5.976-5.95-5.976s-5.97 2.544-5.97 5.976 2.56 6 5.97 6zm26.86-12.48h.79l-4.61 12.96h-.57l-4.44-11.04-4.37 11.04h-.6l-4.46-12.96h.81l3.99 11.616 4.46-11.184h.36l4.51 11.232 4.13-11.664zm21.37-4.56h.77V934h-.63l-.12-3.288c-1.05 2.136-3.19 3.552-5.88 3.552-3.79 0-6.6-2.904-6.6-6.744 0-3.816 2.81-6.72 6.6-6.72 2.67 0 4.8 1.392 5.86 3.528v-7.848zm-5.81 17.04c3.39 0 5.86-2.544 5.86-6 0-3.432-2.47-5.976-5.86-5.976-3.36 0-5.88 2.568-5.88 5.976s2.52 6 5.88 6zm16.9.744c-3.84 0-6.74-2.88-6.74-6.744s2.9-6.72 6.74-6.72c3.87 0 6.75 2.88 6.75 6.72 0 3.864-2.88 6.744-6.75 6.744zm0-.744c3.43 0 5.95-2.568 5.95-6 0-3.408-2.52-5.976-5.95-5.976s-5.97 2.544-5.97 5.976 2.56 6 5.97 6zm26.86-12.48h.79l-4.6 12.96h-.58l-4.44-11.04-4.37 11.04h-.6l-4.46-12.96h.81l3.99 11.616 4.46-11.184h.36l4.51 11.232 4.13-11.664zm9.57-.24c3.14 0 5.09 2.208 5.09 5.544V934h-.77v-7.536c0-3.072-1.68-4.944-4.46-4.944-2.64 0-4.9 2.28-4.9 4.944V934h-.77v-12.96h.6l.15 3c.86-1.92 2.83-3.24 5.06-3.24zm27.24.24h.57v11.064c0 4.2-2.3 6.744-6.12 6.744-2.9 0-4.94-1.464-5.73-3.96h.76c.77 2.064 2.6 3.24 4.97 3.24 3.31 0 5.38-2.232 5.38-5.952v-1.968c-1.01 2.04-3.07 3.336-5.59 3.336-3.58 0-6.32-2.736-6.32-6.36s2.76-6.384 6.32-6.384c2.54 0 4.65 1.392 5.66 3.504l.1-3.264zM3002 932.8c3.19 0 5.52-2.376 5.52-5.616 0-3.24-2.35-5.64-5.52-5.64-3.19 0-5.59 2.448-5.59 5.64 0 3.192 2.4 5.616 5.59 5.616zm16.31-11.784h1.13v.744h-1.18c-2.71 0-4.51 2.088-4.51 4.944V934h-.77v-12.96h.6l.12 2.952c.82-1.824 2.43-2.976 4.61-2.976zm8.77 13.248c-3.84 0-6.74-2.88-6.74-6.744s2.9-6.72 6.74-6.72c3.87 0 6.75 2.88 6.75 6.72 0 3.864-2.88 6.744-6.75 6.744zm0-.744c3.44 0 5.96-2.568 5.96-6 0-3.408-2.52-5.976-5.96-5.976-3.43 0-5.97 2.544-5.97 5.976s2.57 6 5.97 6zm26.86-12.48h.8l-4.61 12.96h-.58l-4.44-11.04-4.37 11.04h-.6l-4.46-12.96h.82l3.98 11.616 4.46-11.184h.36l4.52 11.232 4.12-11.664zm8.61 12.24h1.63v.744h-1.7c-2.42 0-3.89-1.488-3.89-3.96v-8.304h-2.97v-.696h2.97v-3.816h.77v3.816h4.7v.696h-4.7v8.28c0 2.04 1.15 3.24 3.19 3.24zm10.15-12.48c3.14 0 5.09 2.136 5.09 5.544V934h-.77v-7.536c0-3.072-1.68-4.944-4.46-4.944-2.64 0-4.9 2.28-4.9 4.944V934h-.77v-17.52h.77v7.512a5.572 5.572 0 0 1 5.04-3.192zm27.79.24.65.024v12.96h-.68l-.07-3.384c-1.05 2.184-3.21 3.624-5.93 3.624-3.76 0-6.6-2.904-6.6-6.72 0-3.84 2.84-6.744 6.6-6.744 2.72 0 4.9 1.44 5.93 3.648l.1-3.408zm-5.98 12.48c3.39 0 5.86-2.52 5.86-5.976s-2.47-6-5.86-6c-3.36 0-5.88 2.592-5.88 6s2.52 5.976 5.88 5.976zm17.17-12.72c3.14 0 5.08 2.208 5.08 5.544V934h-.76v-7.536c0-3.072-1.68-4.944-4.47-4.944-2.64 0-4.89 2.28-4.89 4.944V934h-.77v-12.96h.6l.14 3a5.564 5.564 0 0 1 5.07-3.24zm20.87-4.32h.76V934h-.62l-.12-3.288c-1.06 2.136-3.19 3.552-5.88 3.552-3.79 0-6.6-2.904-6.6-6.744 0-3.816 2.81-6.72 6.6-6.72 2.66 0 4.8 1.392 5.86 3.528v-7.848zm-5.81 17.04c3.38 0 5.85-2.544 5.85-6 0-3.432-2.47-5.976-5.85-5.976-3.36 0-5.88 2.568-5.88 5.976s2.52 6 5.88 6zm24.19-12.72c3.84 0 6.58 2.904 6.58 6.72 0 3.84-2.74 6.744-6.58 6.744-2.64 0-4.82-1.44-5.88-3.6v7.92h-.77V921.04h.6l.15 3.408c1.05-2.208 3.26-3.648 5.9-3.648zm-.05 12.72c3.39 0 5.86-2.544 5.86-6s-2.47-5.976-5.86-5.976c-3.33 0-5.85 2.568-5.85 5.976s2.52 6 5.85 6zm15.56-12.504h1.13v.744h-1.18c-2.71 0-4.51 2.088-4.51 4.944V934h-.77v-12.96h.6l.12 2.952c.82-1.824 2.42-2.976 4.61-2.976zm8.77 13.248c-3.84 0-6.74-2.88-6.74-6.744s2.9-6.72 6.74-6.72c3.86 0 6.74 2.88 6.74 6.72 0 3.864-2.88 6.744-6.74 6.744zm0-.744c3.43 0 5.95-2.568 5.95-6 0-3.408-2.52-5.976-5.95-5.976s-5.98 2.544-5.98 5.976 2.57 6 5.98 6zm21.24-12.48h.58v11.064c0 4.2-2.31 6.744-6.12 6.744-2.91 0-4.95-1.464-5.74-3.96h.77c.77 2.064 2.59 3.24 4.97 3.24 3.31 0 5.37-2.232 5.37-5.952v-1.968c-1 2.04-3.07 3.336-5.59 3.336-3.57 0-6.31-2.736-6.31-6.36s2.76-6.384 6.31-6.384c2.55 0 4.66 1.392 5.67 3.504l.09-3.264zm-5.69 11.76c3.2 0 5.52-2.376 5.52-5.616 0-3.24-2.35-5.64-5.52-5.64-3.19 0-5.59 2.448-5.59 5.64 0 3.192 2.4 5.616 5.59 5.616zm16.32-11.784h1.13v.744h-1.18c-2.71 0-4.51 2.088-4.51 4.944V934h-.77v-12.96h.6l.12 2.952c.82-1.824 2.42-2.976 4.61-2.976zm14.91 6.432c0 .096 0 .216-.02.312h-12.1c.12 3.312 2.55 5.736 5.74 5.736 2.3 0 4.13-1.176 5.16-3.192h.82c-1.23 2.568-3.32 3.96-5.98 3.96-3.7 0-6.48-2.904-6.48-6.744 0-3.816 2.78-6.72 6.48-6.72 3.74 0 6.38 2.904 6.38 6.648zm-6.38-5.904c-3.12 0-5.5 2.304-5.71 5.496h11.33c-.2-3.288-2.57-5.496-5.62-5.496zm13.58 12.72c-2.93 0-4.73-1.44-4.94-3.792h.76c.2 1.944 1.76 3.072 4.2 3.072 2.48 0 4.11-1.176 4.11-2.976 0-2.232-2.11-2.64-4.25-3-2.26-.384-4.56-.768-4.56-3.312 0-2.064 1.85-3.456 4.58-3.456 2.76 0 4.52 1.392 4.64 3.624h-.72c-.15-1.824-1.56-2.928-3.92-2.928-2.3 0-3.84 1.104-3.84 2.736 0 1.944 1.88 2.256 3.99 2.616 2.28.36 4.85.84 4.85 3.696 0 2.232-1.97 3.72-4.9 3.72zm12.14 0c-2.93 0-4.73-1.44-4.94-3.792h.76c.2 1.944 1.76 3.072 4.2 3.072 2.48 0 4.11-1.176 4.11-2.976 0-2.232-2.11-2.64-4.25-3-2.26-.384-4.56-.768-4.56-3.312 0-2.064 1.85-3.456 4.58-3.456 2.76 0 4.52 1.392 4.64 3.624h-.72c-.15-1.824-1.56-2.928-3.92-2.928-2.3 0-3.84 1.104-3.84 2.736 0 1.944 1.88 2.256 3.99 2.616 2.28.36 4.85.84 4.85 3.696 0 2.232-1.97 3.72-4.9 3.72zm7.7-.264v-1.488h1.15V934h-1.15zm31.76-16.8h.84l-5.4 16.8h-.65l-5.37-14.52-5.28 14.52h-.65l-5.5-16.8h.84l4.99 15.432 5.38-14.784h.41l5.47 14.784 4.92-15.432zm14.99 10.248c0 .096 0 .216-.03.312h-12.09c.12 3.312 2.54 5.736 5.73 5.736 2.31 0 4.13-1.176 5.16-3.192h.82c-1.23 2.568-3.31 3.96-5.98 3.96-3.69 0-6.48-2.904-6.48-6.744 0-3.816 2.79-6.72 6.48-6.72 3.75 0 6.39 2.904 6.39 6.648zm-6.39-5.904c-3.12 0-5.49 2.304-5.71 5.496h11.33c-.19-3.288-2.57-5.496-5.62-5.496zm28.08-.504.65.024v12.96h-.67l-.07-3.384c-1.06 2.184-3.22 3.624-5.93 3.624-3.77 0-6.6-2.904-6.6-6.72 0-3.84 2.83-6.744 6.6-6.744 2.71 0 4.89 1.44 5.93 3.648l.09-3.408zm-5.97 12.48c3.38 0 5.85-2.52 5.85-5.976s-2.47-6-5.85-6c-3.36 0-5.88 2.592-5.88 6s2.52 5.976 5.88 5.976zm16.68-12.504h1.13v.744h-1.18c-2.71 0-4.51 2.088-4.51 4.944V934h-.77v-12.96h.6l.12 2.952c.82-1.824 2.43-2.976 4.61-2.976zm14.92 6.432c0 .096 0 .216-.03.312h-12.09c.12 3.312 2.54 5.736 5.73 5.736 2.31 0 4.13-1.176 5.16-3.192h.82c-1.23 2.568-3.31 3.96-5.98 3.96-3.69 0-6.48-2.904-6.48-6.744 0-3.816 2.79-6.72 6.48-6.72 3.75 0 6.39 2.904 6.39 6.648zm-6.39-5.904c-3.12 0-5.49 2.304-5.71 5.496h11.33c-.19-3.288-2.57-5.496-5.62-5.496zm22.42-.744c3.14 0 5.09 2.208 5.09 5.544V934h-.77v-7.536c0-3.072-1.68-4.944-4.47-4.944-2.64 0-4.89 2.28-4.89 4.944V934h-.77v-12.96h.6l.14 3c.87-1.92 2.84-3.24 5.07-3.24zm15.16 13.464c-3.84 0-6.75-2.88-6.75-6.744s2.91-6.72 6.75-6.72c3.86 0 6.74 2.88 6.74 6.72 0 3.864-2.88 6.744-6.74 6.744zm0-.744c3.43 0 5.95-2.568 5.95-6 0-3.408-2.52-5.976-5.95-5.976s-5.98 2.544-5.98 5.976 2.57 6 5.98 6zm14.89-.24h1.63v.744h-1.71c-2.42 0-3.88-1.488-3.88-3.96v-8.304h-2.98v-.696h2.98v-3.816h.76v3.816h4.71v.696h-4.71v8.28c0 2.04 1.16 3.24 3.2 3.24zm16.9-12.216v.696h-4.61V934h-.76v-12.24h-2.81v-.696h2.81v-1.008c0-3 1.15-4.176 4.17-4.176h1.2v.672H3405c-2.66 0-3.55.888-3.55 3.504v1.008h4.63zm7.68 13.2c-3.84 0-6.75-2.88-6.75-6.744s2.91-6.72 6.75-6.72c3.86 0 6.74 2.88 6.74 6.72 0 3.864-2.88 6.744-6.74 6.744zm0-.744c3.43 0 5.95-2.568 5.95-6 0-3.408-2.52-5.976-5.95-5.976-3.44 0-5.98 2.544-5.98 5.976s2.57 6 5.98 6zm15.65-12.504h1.12v.744h-1.17c-2.71 0-4.51 2.088-4.51 4.944V934h-.77v-12.96h.6l.12 2.952c.81-1.824 2.42-2.976 4.61-2.976zm-708.32 37.432c0 .096 0 .216-.03.312h-12.09c.12 3.312 2.54 5.736 5.73 5.736 2.31 0 4.13-1.176 5.16-3.192h.82c-1.22 2.568-3.31 3.96-5.98 3.96-3.69 0-6.48-2.904-6.48-6.744 0-3.816 2.79-6.72 6.48-6.72 3.75 0 6.39 2.904 6.39 6.648zm-6.39-5.904c-3.12 0-5.49 2.304-5.71 5.496h11.33c-.19-3.288-2.57-5.496-5.62-5.496zm19.37-.504h.79L2729.1 965h-.64l-5.91-12.96h.82l5.4 11.88 5.3-11.88zm15.24 6.408c0 .096 0 .216-.03.312h-12.09c.12 3.312 2.54 5.736 5.73 5.736 2.31 0 4.13-1.176 5.16-3.192h.82c-1.23 2.568-3.31 3.96-5.98 3.96-3.69 0-6.48-2.904-6.48-6.744 0-3.816 2.79-6.72 6.48-6.72 3.75 0 6.39 2.904 6.39 6.648zm-6.39-5.904c-3.12 0-5.49 2.304-5.71 5.496h11.33c-.19-3.288-2.57-5.496-5.62-5.496zm15.19-.528h1.13v.744h-1.18c-2.71 0-4.51 2.088-4.51 4.944V965h-.77v-12.96h.6l.12 2.952c.82-1.824 2.43-2.976 4.61-2.976zm13.77.024h.82l-6.6 14.112c-1.25 2.688-2.38 3.432-4.44 3.432h-1.01v-.72h.96c1.78 0 2.66-.528 3.79-2.928l.77-1.656-6.05-12.24h.87l5.59 11.4 5.3-11.4zm9.02 13.224c-3.84 0-6.75-2.88-6.75-6.744s2.91-6.72 6.75-6.72c3.86 0 6.74 2.88 6.74 6.72 0 3.864-2.88 6.744-6.74 6.744zm0-.744c3.43 0 5.95-2.568 5.95-6 0-3.408-2.52-5.976-5.95-5.976s-5.98 2.544-5.98 5.976 2.57 6 5.98 6zm16.13-12.72c3.14 0 5.09 2.208 5.09 5.544V965h-.77v-7.536c0-3.072-1.68-4.944-4.47-4.944-2.64 0-4.89 2.28-4.89 4.944V965h-.77v-12.96h.6l.14 3c.87-1.92 2.84-3.24 5.07-3.24zm21.3 6.648c0 .096 0 .216-.02.312h-12.1c.12 3.312 2.54 5.736 5.74 5.736 2.3 0 4.12-1.176 5.16-3.192h.81c-1.22 2.568-3.31 3.96-5.97 3.96-3.7 0-6.48-2.904-6.48-6.744 0-3.816 2.78-6.72 6.48-6.72 3.74 0 6.38 2.904 6.38 6.648zm-6.38-5.904c-3.12 0-5.5 2.304-5.72 5.496h11.33c-.19-3.288-2.57-5.496-5.61-5.496zm8.85 15.072v-.648c.58-.384.77-.864.77-1.968h-.81v-1.464h1.36v1.368c0 1.512-.38 2.184-1.32 2.712zm23.59-15.576.64.024v12.96h-.67l-.07-3.384c-1.06 2.184-3.22 3.624-5.93 3.624-3.77 0-6.6-2.904-6.6-6.72 0-3.84 2.83-6.744 6.6-6.744 2.71 0 4.9 1.44 5.93 3.648l.1-3.408zm-5.98 12.48c3.38 0 5.86-2.52 5.86-5.976s-2.48-6-5.86-6c-3.36 0-5.88 2.592-5.88 6s2.52 5.976 5.88 5.976zm17.16-12.72c3.15 0 5.09 2.208 5.09 5.544V965h-.77v-7.536c0-3.072-1.68-4.944-4.46-4.944-2.64 0-4.9 2.28-4.9 4.944V965h-.76v-12.96h.6l.14 3c.86-1.92 2.83-3.24 5.06-3.24zm20.88-4.32h.76V965h-.62l-.12-3.288c-1.06 2.136-3.19 3.552-5.88 3.552-3.79 0-6.6-2.904-6.6-6.744 0-3.816 2.81-6.72 6.6-6.72 2.66 0 4.8 1.392 5.86 3.528v-7.848zm-5.81 17.04c3.38 0 5.85-2.544 5.85-6 0-3.432-2.47-5.976-5.85-5.976-3.36 0-5.88 2.568-5.88 5.976s2.52 6 5.88 6zm22.27-.24h1.63v.744h-1.7c-2.43 0-3.89-1.488-3.89-3.96v-8.304h-2.98v-.696h2.98v-3.816h.77v3.816h4.7v.696h-4.7v8.28c0 2.04 1.15 3.24 3.19 3.24zm10.15-12.48c3.14 0 5.09 2.136 5.09 5.544V965h-.77v-7.536c0-3.072-1.68-4.944-4.47-4.944-2.64 0-4.89 2.28-4.89 4.944V965h-.77v-17.52h.77v7.512a5.572 5.572 0 0 1 5.04-3.192zm21.04.24.65.024v12.96h-.68l-.07-3.384c-1.05 2.184-3.21 3.624-5.93 3.624-3.76 0-6.6-2.904-6.6-6.72 0-3.84 2.84-6.744 6.6-6.744 2.72 0 4.9 1.44 5.93 3.648l.1-3.408zm-5.98 12.48c3.39 0 5.86-2.52 5.86-5.976s-2.47-6-5.86-6c-3.36 0-5.88 2.592-5.88 6s2.52 5.976 5.88 5.976zm16.2-.24h1.64v.744h-1.71c-2.42 0-3.89-1.488-3.89-3.96v-8.304h-2.97v-.696h2.97v-3.816h.77v3.816h4.71v.696h-4.71v8.28c0 2.04 1.15 3.24 3.19 3.24zm3.82-10.68v-5.448h.74v5.448h-.74zm8.65 11.664c-2.93 0-4.73-1.44-4.94-3.792h.76c.2 1.944 1.76 3.072 4.2 3.072 2.48 0 4.11-1.176 4.11-2.976 0-2.232-2.11-2.64-4.25-3-2.26-.384-4.56-.768-4.56-3.312 0-2.064 1.85-3.456 4.58-3.456 2.76 0 4.52 1.392 4.64 3.624h-.72c-.15-1.824-1.56-2.928-3.92-2.928-2.3 0-3.84 1.104-3.84 2.736 0 1.944 1.88 2.256 3.99 2.616 2.28.36 4.85.84 4.85 3.696 0 2.232-1.97 3.72-4.9 3.72zm31.31-13.224h.79l-4.61 12.96h-.57l-4.44-11.04-4.37 11.04h-.6l-4.46-12.96h.81l3.99 11.616 4.46-11.184h.36l4.51 11.232 4.13-11.664zm9.57-.24c3.14 0 5.09 2.136 5.09 5.544V965h-.77v-7.536c0-3.072-1.68-4.944-4.47-4.944-2.64 0-4.89 2.28-4.89 4.944V965h-.77v-17.52h.77v7.512a5.572 5.572 0 0 1 5.04-3.192zm19.22.24h.82l-6.6 14.112c-1.25 2.688-2.38 3.432-4.44 3.432h-1.01v-.72h.96c1.77 0 2.66-.528 3.79-2.928l.77-1.656-6.05-12.24h.86l5.6 11.4 5.3-11.4zm16.45-.24c3.84 0 6.57 2.904 6.57 6.72 0 3.84-2.73 6.744-6.57 6.744-2.64 0-4.83-1.44-5.88-3.6v7.92h-.77V952.04h.6l.14 3.408c1.06-2.208 3.27-3.648 5.91-3.648zm-.05 12.72c3.38 0 5.85-2.544 5.85-6s-2.47-5.976-5.85-5.976c-3.34 0-5.86 2.568-5.86 5.976s2.52 6 5.86 6zm15.55-12.504h1.13v.744h-1.17c-2.72 0-4.52 2.088-4.52 4.944V965h-.76v-12.96h.6l.12 2.952c.81-1.824 2.42-2.976 4.6-2.976zm14.92 6.432c0 .096 0 .216-.02.312h-12.1c.12 3.312 2.54 5.736 5.74 5.736 2.3 0 4.12-1.176 5.16-3.192h.81c-1.22 2.568-3.31 3.96-5.97 3.96-3.7 0-6.48-2.904-6.48-6.744 0-3.816 2.78-6.72 6.48-6.72 3.74 0 6.38 2.904 6.38 6.648zm-6.38-5.904c-3.12 0-5.5 2.304-5.72 5.496h11.33c-.19-3.288-2.57-5.496-5.61-5.496zm15.35 12.72c-3.77 0-6.65-2.904-6.65-6.744 0-3.864 2.86-6.72 6.65-6.72 2.88 0 5.11 1.608 6.02 4.08h-.76c-.92-2.088-2.88-3.336-5.26-3.336-3.36 0-5.88 2.568-5.88 5.976s2.54 6 5.88 6c2.35 0 4.32-1.248 5.28-3.384h.79c-.96 2.544-3.26 4.128-6.07 4.128zm9.17-16.104v-1.32h1.13v1.32h-1.13zm.19 15.84v-12.96h.77V965h-.77zm9.21.264c-2.93 0-4.73-1.44-4.95-3.792h.77c.19 1.944 1.75 3.072 4.2 3.072 2.47 0 4.11-1.176 4.11-2.976 0-2.232-2.12-2.64-4.25-3-2.26-.384-4.56-.768-4.56-3.312 0-2.064 1.85-3.456 4.58-3.456 2.76 0 4.51 1.392 4.63 3.624h-.72c-.14-1.824-1.56-2.928-3.91-2.928-2.3 0-3.84 1.104-3.84 2.736 0 1.944 1.87 2.256 3.99 2.616 2.28.36 4.84.84 4.84 3.696 0 2.232-1.96 3.72-4.89 3.72zm20.16-6.816c0 .096 0 .216-.03.312h-12.09c.12 3.312 2.54 5.736 5.73 5.736 2.31 0 4.13-1.176 5.16-3.192h.82c-1.23 2.568-3.31 3.96-5.98 3.96-3.69 0-6.48-2.904-6.48-6.744 0-3.816 2.79-6.72 6.48-6.72 3.75 0 6.39 2.904 6.39 6.648zm-6.39-5.904c-3.12 0-5.49 2.304-5.71 5.496h11.33c-.19-3.288-2.57-5.496-5.62-5.496zm9.86 12.456v-17.52h.77V965h-.77zm15.47-12.96h.81l-6.6 14.112c-1.24 2.688-2.37 3.432-4.44 3.432h-1v-.72h.96c1.77 0 2.66-.528 3.79-2.928l.77-1.656-6.05-12.24h.86l5.59 11.4 5.31-11.4zm25.93 0h.8l-4.61 12.96h-.58l-4.44-11.04-4.37 11.04h-.6l-4.46-12.96h.82l3.98 11.616 4.46-11.184h.36l4.52 11.232 4.12-11.664zm15.45 6.408c0 .096 0 .216-.02.312h-12.1c.12 3.312 2.55 5.736 5.74 5.736 2.3 0 4.13-1.176 5.16-3.192h.82c-1.23 2.568-3.32 3.96-5.98 3.96-3.7 0-6.48-2.904-6.48-6.744 0-3.816 2.78-6.72 6.48-6.72 3.74 0 6.38 2.904 6.38 6.648zm-6.38-5.904c-3.12 0-5.5 2.304-5.71 5.496h11.33c-.2-3.288-2.57-5.496-5.62-5.496zm-442.33 43.72c-2.93 0-4.73-1.44-4.94-3.792h.77c.19 1.944 1.75 3.072 4.2 3.072 2.47 0 4.1-1.176 4.1-2.976 0-2.232-2.11-2.64-4.25-3-2.25-.384-4.56-.768-4.56-3.312 0-2.064 1.85-3.456 4.59-3.456 2.76 0 4.51 1.392 4.63 3.624h-.72c-.15-1.824-1.56-2.928-3.91-2.928-2.31 0-3.84 1.104-3.84 2.736 0 1.944 1.87 2.256 3.98 2.616 2.28.36 4.85.84 4.85 3.696 0 2.232-1.97 3.72-4.9 3.72zm20.16-6.816c0 .096 0 .216-.03.312h-12.09c.12 3.312 2.54 5.736 5.73 5.736 2.31 0 4.13-1.176 5.16-3.192h.82c-1.22 2.568-3.31 3.96-5.98 3.96-3.69 0-6.48-2.904-6.48-6.744 0-3.816 2.79-6.72 6.48-6.72 3.75 0 6.39 2.904 6.39 6.648zm-6.39-5.904c-3.12 0-5.49 2.304-5.71 5.496h11.33c-.19-3.288-2.57-5.496-5.62-5.496zm21.6 5.904c0 .096 0 .216-.02.312h-12.1c.12 3.312 2.54 5.736 5.74 5.736 2.3 0 4.12-1.176 5.16-3.192h.81c-1.22 2.568-3.31 3.96-5.97 3.96-3.7 0-6.48-2.904-6.48-6.744 0-3.816 2.78-6.72 6.48-6.72 3.74 0 6.38 2.904 6.38 6.648zm-6.38-5.904c-3.12 0-5.5 2.304-5.72 5.496h11.33c-.19-3.288-2.57-5.496-5.61-5.496zM2760.7 996l-5.55-6.384h-2.42V996h-.77v-17.52h.77v10.392h2.45l5.06-5.832h.96l-5.37 6.216 5.85 6.744h-.98zm21.34-12.96.65.024v12.96h-.67l-.07-3.384c-1.06 2.184-3.22 3.624-5.93 3.624-3.77 0-6.6-2.904-6.6-6.72 0-3.84 2.83-6.744 6.6-6.744 2.71 0 4.89 1.44 5.93 3.648l.09-3.408zm-5.97 12.48c3.38 0 5.85-2.52 5.85-5.976s-2.47-6-5.85-6c-3.36 0-5.88 2.592-5.88 6s2.52 5.976 5.88 5.976zm27.14-12.48h.8l-5.76 12.96h-.65l-5.91-12.96h.82l5.4 11.88 5.3-11.88zm15.24 6.408c0 .096 0 .216-.03.312h-12.09c.12 3.312 2.54 5.736 5.73 5.736 2.31 0 4.13-1.176 5.16-3.192h.82c-1.22 2.568-3.31 3.96-5.98 3.96-3.69 0-6.48-2.904-6.48-6.744 0-3.816 2.79-6.72 6.48-6.72 3.75 0 6.39 2.904 6.39 6.648zm-6.39-5.904c-3.12 0-5.49 2.304-5.71 5.496h11.33c-.19-3.288-2.57-5.496-5.62-5.496zm15.19-.528h1.13v.744h-1.18c-2.71 0-4.51 2.088-4.51 4.944V996h-.77v-12.96h.6l.12 2.952c.82-1.824 2.43-2.976 4.61-2.976zm13.77.024h.82l-6.6 14.112c-1.25 2.688-2.38 3.428-4.44 3.428h-1.01v-.716h.96c1.78 0 2.67-.528 3.79-2.928l.77-1.656-6.05-12.24h.87l5.59 11.4 5.3-11.4zm13.52 13.224c-2.93 0-4.73-1.44-4.94-3.792h.76c.2 1.944 1.76 3.072 4.2 3.072 2.48 0 4.11-1.176 4.11-2.976 0-2.232-2.11-2.64-4.25-3-2.26-.384-4.56-.768-4.56-3.312 0-2.064 1.85-3.456 4.58-3.456 2.76 0 4.52 1.392 4.64 3.624h-.72c-.15-1.824-1.56-2.928-3.92-2.928-2.3 0-3.84 1.104-3.84 2.736 0 1.944 1.88 2.256 3.99 2.616 2.28.36 4.85.84 4.85 3.696 0 2.232-1.97 3.72-4.9 3.72zm15.07-13.464c3.84 0 6.58 2.904 6.58 6.72 0 3.84-2.74 6.744-6.58 6.744-2.64 0-4.82-1.44-5.88-3.6v7.916h-.77v-17.54h.6l.15 3.408c1.05-2.208 3.26-3.648 5.9-3.648zm-.05 12.72c3.39 0 5.86-2.544 5.86-6s-2.47-5.976-5.86-5.976c-3.33 0-5.85 2.568-5.85 5.976s2.52 6 5.85 6zm21.97-6.072c0 .096 0 .216-.03.312h-12.09c.12 3.312 2.54 5.736 5.73 5.736 2.31 0 4.13-1.176 5.16-3.192h.82c-1.23 2.568-3.31 3.96-5.98 3.96-3.69 0-6.48-2.904-6.48-6.744 0-3.816 2.79-6.72 6.48-6.72 3.75 0 6.39 2.904 6.39 6.648zm-6.39-5.904c-3.12 0-5.49 2.304-5.71 5.496h11.33c-.19-3.288-2.57-5.496-5.62-5.496zm15.36 12.72c-3.77 0-6.65-2.904-6.65-6.744 0-3.864 2.85-6.72 6.65-6.72 2.88 0 5.11 1.608 6.02 4.08h-.77c-.91-2.088-2.88-3.336-5.25-3.336-3.36 0-5.88 2.568-5.88 5.976s2.54 6 5.88 6c2.35 0 4.32-1.248 5.28-3.384h.79c-.96 2.544-3.27 4.128-6.07 4.128zm9.17-16.104v-1.32h1.13v1.32h-1.13zm.19 15.84v-12.96h.77V996h-.77zm11.65-12.936v.696h-4.61V996h-.76v-12.24h-2.81v-.696h2.81v-1.008c0-3 1.15-4.176 4.17-4.176h1.2v.672h-1.08c-2.66 0-3.55.888-3.55 3.504v1.008h4.63zm2.48-2.904v-1.32h1.13v1.32h-1.13zm.19 15.84v-12.96h.77V996h-.77zm10.98.264c-3.77 0-6.65-2.904-6.65-6.744 0-3.864 2.86-6.72 6.65-6.72 2.88 0 5.11 1.608 6.02 4.08h-.76c-.92-2.088-2.88-3.336-5.26-3.336-3.36 0-5.88 2.568-5.88 5.976s2.54 6 5.88 6c2.35 0 4.32-1.248 5.28-3.384h.79c-.96 2.544-3.26 4.128-6.07 4.128zm24.9-.264-5.55-6.384h-2.42V996h-.77v-17.52h.77v10.392h2.45l5.06-5.832h.96l-5.37 6.216 5.85 6.744h-.98zm3.26-15.84v-1.32h1.12v1.32h-1.12zm.19 15.84v-12.96h.77V996h-.77zm11.29-13.2c3.14 0 5.09 2.208 5.09 5.544V996h-.77v-7.536c0-3.072-1.68-4.944-4.46-4.944-2.64 0-4.9 2.28-4.9 4.944V996h-.77v-12.96h.6l.15 3c.86-1.92 2.83-3.24 5.06-3.24zm20.87-4.32h.77V996h-.62l-.12-3.288c-1.06 2.136-3.2 3.552-5.88 3.552-3.8 0-6.6-2.904-6.6-6.744 0-3.816 2.8-6.72 6.6-6.72 2.66 0 4.8 1.392 5.85 3.528v-7.848zm-5.81 17.04c3.39 0 5.86-2.544 5.86-6 0-3.432-2.47-5.976-5.86-5.976-3.36 0-5.88 2.568-5.88 5.976s2.52 6 5.88 6zm23.65.744c-3.84 0-6.74-2.88-6.74-6.744s2.9-6.72 6.74-6.72c3.87 0 6.75 2.88 6.75 6.72 0 3.864-2.88 6.744-6.75 6.744zm0-.744c3.44 0 5.96-2.568 5.96-6 0-3.408-2.52-5.976-5.96-5.976-3.43 0-5.97 2.544-5.97 5.976s2.57 6 5.97 6zm16.24-12.456v.696h-4.61V996h-.77v-12.24h-2.81v-.696h2.81v-1.008c0-3 1.15-4.176 4.18-4.176h1.2v.672h-1.08c-2.67 0-3.56.888-3.56 3.504v1.008h4.64zm14.18 13.2c-3.76 0-6.64-2.904-6.64-6.744 0-3.864 2.85-6.72 6.64-6.72 2.88 0 5.12 1.608 6.03 4.08h-.77c-.91-2.088-2.88-3.336-5.26-3.336-3.36 0-5.88 2.568-5.88 5.976s2.55 6 5.88 6c2.36 0 4.32-1.248 5.28-3.384h.8c-.96 2.544-3.27 4.128-6.08 4.128zm9.37-.264v-17.52h.77V996h-.77zm5.29-15.84v-1.32h1.13v1.32h-1.13zm.19 15.84v-12.96h.77V996h-.77zm17.22-6.552c0 .096 0 .216-.02.312h-12.1c.12 3.312 2.55 5.736 5.74 5.736 2.3 0 4.13-1.176 5.16-3.192h.81c-1.22 2.568-3.31 3.96-5.97 3.96-3.7 0-6.48-2.904-6.48-6.744 0-3.816 2.78-6.72 6.48-6.72 3.74 0 6.38 2.904 6.38 6.648zm-6.38-5.904c-3.12 0-5.5 2.304-5.71 5.496h11.32c-.19-3.288-2.56-5.496-5.61-5.496zm15.66-.744c3.15 0 5.09 2.208 5.09 5.544V996h-.77v-7.536c0-3.072-1.68-4.944-4.46-4.944-2.64 0-4.9 2.28-4.9 4.944V996h-.76v-12.96h.6l.14 3c.86-1.92 2.83-3.24 5.06-3.24zm14.26 12.48h1.63v.744h-1.71c-2.42 0-3.88-1.488-3.88-3.96v-8.304h-2.98v-.696h2.98v-3.816h.76v3.816h4.71v.696h-4.71v8.28c0 2.04 1.16 3.24 3.2 3.24zm3.62.72v-1.488h1.15V996h-1.15zm-374.8 31h-.79l-2.71-15.29-6.41 14.55h-.31l-6.41-14.52-2.71 15.26h-.8l2.98-16.8h.7l6.38 14.62 6.43-14.62h.7l2.95 16.8zm15.08-12.96.65.02v12.96h-.67l-.07-3.38c-1.06 2.18-3.22 3.62-5.93 3.62-3.77 0-6.6-2.9-6.6-6.72 0-3.84 2.83-6.74 6.6-6.74 2.71 0 4.89 1.44 5.93 3.65l.09-3.41zm-5.97 12.48c3.38 0 5.85-2.52 5.85-5.98 0-3.45-2.47-6-5.85-6-3.36 0-5.88 2.6-5.88 6 0 3.41 2.52 5.98 5.88 5.98zm21.33-12.48h.82l-6.6 14.11c-1.25 2.69-2.38 3.43-4.44 3.43h-1.01v-.72h.96c1.78 0 2.67-.52 3.79-2.92l.77-1.66-6.05-12.24h.87l5.59 11.4 5.3-11.4zm10.43-.24c3.86 0 6.57 2.9 6.57 6.72 0 3.84-2.71 6.74-6.57 6.74-2.64 0-4.83-1.41-5.91-3.57l-.09 3.31h-.65v-17.52h.77v7.87c1.08-2.13 3.24-3.55 5.88-3.55zm-.05 12.72c3.38 0 5.85-2.54 5.85-6s-2.47-5.98-5.85-5.98c-3.34 0-5.88 2.57-5.88 5.98 0 3.41 2.54 6 5.88 6zm21.96-6.07c0 .09 0 .21-.02.31h-12.1c.12 3.31 2.55 5.74 5.74 5.74 2.3 0 4.13-1.18 5.16-3.2h.81c-1.22 2.57-3.31 3.96-5.97 3.96-3.7 0-6.48-2.9-6.48-6.74 0-3.82 2.78-6.72 6.48-6.72 3.74 0 6.38 2.9 6.38 6.65zm-6.38-5.91c-3.12 0-5.5 2.31-5.71 5.5h11.32c-.19-3.29-2.56-5.5-5.61-5.5zm20.82 11.74h1.63v.74h-1.7c-2.42 0-3.89-1.48-3.89-3.96v-8.3h-2.97v-.7h2.97v-3.81h.77v3.81h4.7v.7h-4.7v8.28c0 2.04 1.15 3.24 3.19 3.24zm10.15-12.48c3.14 0 5.09 2.14 5.09 5.54v7.66h-.77v-7.54c0-3.07-1.68-4.94-4.46-4.94-2.64 0-4.9 2.28-4.9 4.94v7.54h-.77v-17.52h.77v7.51a5.58 5.58 0 0 1 5.04-3.19zm21.04.24.65.02v12.96h-.67l-.08-3.38c-1.05 2.18-3.21 3.62-5.92 3.62-3.77 0-6.6-2.9-6.6-6.72 0-3.84 2.83-6.74 6.6-6.74 2.71 0 4.89 1.44 5.92 3.65l.1-3.41zm-5.98 12.48c3.39 0 5.86-2.52 5.86-5.98 0-3.45-2.47-6-5.86-6-3.36 0-5.88 2.6-5.88 6 0 3.41 2.52 5.98 5.88 5.98zm16.21-.24h1.63v.74h-1.71c-2.42 0-3.88-1.48-3.88-3.96v-8.3h-2.98v-.7h2.98v-3.81h.76v3.81h4.71v.7h-4.71v8.28c0 2.04 1.16 3.24 3.2 3.24zm3.81-10.68v-5.45h.74v5.45h-.74zm8.65 11.66c-2.93 0-4.73-1.44-4.94-3.79h.77c.19 1.95 1.75 3.07 4.2 3.07 2.47 0 4.1-1.17 4.1-2.97 0-2.23-2.11-2.64-4.25-3-2.25-.39-4.56-.77-4.56-3.31 0-2.07 1.85-3.46 4.59-3.46 2.76 0 4.51 1.39 4.63 3.62h-.72c-.15-1.82-1.56-2.92-3.91-2.92-2.31 0-3.84 1.1-3.84 2.73 0 1.95 1.87 2.26 3.98 2.62 2.28.36 4.85.84 4.85 3.69 0 2.24-1.97 3.72-4.9 3.72zm24.48-13.22h.81l-6.6 14.11c-1.24 2.69-2.37 3.43-4.44 3.43h-1v-.72h.96c1.77 0 2.66-.52 3.79-2.92l.77-1.66-6.05-12.24h.86l5.59 11.4 5.31-11.4zm9.01 13.22c-3.84 0-6.74-2.88-6.74-6.74 0-3.86 2.9-6.72 6.74-6.72 3.87 0 6.75 2.88 6.75 6.72 0 3.86-2.88 6.74-6.75 6.74zm0-.74c3.43 0 5.95-2.57 5.95-6 0-3.41-2.52-5.98-5.95-5.98s-5.97 2.55-5.97 5.98c0 3.43 2.56 6 5.97 6zm15.53.74c-3.33 0-5.47-2.23-5.47-5.68v-7.54h.77v7.44c0 3.1 1.8 5.04 4.7 5.04 2.91 0 4.68-1.94 4.68-5.04v-7.44h.77v7.54c0 3.45-2.11 5.68-5.45 5.68zm9.38-9.62v-1.51h1.18v1.51h-1.18zm0 9.36v-1.49h1.18v1.49h-1.18zm11.92-15.84v-1.32h1.13v1.32h-1.13zm.19 15.84v-12.96h.77V1027h-.77zm10.33-.72h1.63v.74h-1.7c-2.42 0-3.89-1.48-3.89-3.96v-8.3h-2.97v-.7h2.97v-3.81h.77v3.81h4.7v.7h-4.7v8.28c0 2.04 1.15 3.24 3.19 3.24zm27.23-12.24h.79l-4.61 12.96h-.57l-4.44-11.04-4.37 11.04h-.6l-4.46-12.96h.81l3.99 11.62 4.46-11.19h.36l4.51 11.23 4.13-11.66zm9.3 13.22c-3.84 0-6.74-2.88-6.74-6.74 0-3.86 2.9-6.72 6.74-6.72 3.87 0 6.75 2.88 6.75 6.72 0 3.86-2.88 6.74-6.75 6.74zm0-.74c3.44 0 5.96-2.57 5.96-6 0-3.41-2.52-5.98-5.96-5.98-3.43 0-5.97 2.55-5.97 5.98 0 3.43 2.57 6 5.97 6zm15.53.74c-3.33 0-5.47-2.23-5.47-5.68v-7.54h.77v7.44c0 3.1 1.8 5.04 4.7 5.04 2.91 0 4.68-1.94 4.68-5.04v-7.44h.77v7.54c0 3.45-2.11 5.68-5.45 5.68zm9.94-.26v-17.52h.77V1027h-.77zm16.79-17.52h.76V1027h-.62l-.12-3.29c-1.06 2.14-3.19 3.55-5.88 3.55-3.79 0-6.6-2.9-6.6-6.74 0-3.82 2.81-6.72 6.6-6.72 2.66 0 4.8 1.39 5.86 3.53v-7.85zm-5.81 17.04c3.38 0 5.85-2.54 5.85-6 0-3.43-2.47-5.98-5.85-5.98-3.36 0-5.88 2.57-5.88 5.98 0 3.41 2.52 6 5.88 6zm24.7-12.72c3.87 0 6.58 2.9 6.58 6.72 0 3.84-2.71 6.74-6.58 6.74-2.64 0-4.82-1.41-5.9-3.57l-.1 3.31h-.64v-17.52h.76v7.87c1.08-2.13 3.24-3.55 5.88-3.55zm-.04 12.72c3.38 0 5.85-2.54 5.85-6s-2.47-5.98-5.85-5.98c-3.34 0-5.88 2.57-5.88 5.98 0 3.41 2.54 6 5.88 6zm21.96-6.07c0 .09 0 .21-.02.31h-12.1c.12 3.31 2.54 5.74 5.74 5.74 2.3 0 4.12-1.18 5.16-3.2h.81c-1.22 2.57-3.31 3.96-5.97 3.96-3.7 0-6.48-2.9-6.48-6.74 0-3.82 2.78-6.72 6.48-6.72 3.74 0 6.38 2.9 6.38 6.65zm-6.38-5.91c-3.12 0-5.5 2.31-5.72 5.5h11.33c-.19-3.29-2.57-5.5-5.61-5.5zm28.08-.5.65.02v12.96h-.68l-.07-3.38c-1.05 2.18-3.21 3.62-5.93 3.62-3.76 0-6.6-2.9-6.6-6.72 0-3.84 2.84-6.74 6.6-6.74 2.72 0 4.9 1.44 5.93 3.65l.1-3.41zm-5.98 12.48c3.39 0 5.86-2.52 5.86-5.98 0-3.45-2.47-6-5.86-6-3.36 0-5.88 2.6-5.88 6 0 3.41 2.52 5.98 5.88 5.98zm17.16-12.72c3.15 0 5.09 2.21 5.09 5.54v7.66h-.77v-7.54c0-3.07-1.68-4.94-4.46-4.94-2.64 0-4.9 2.28-4.9 4.94v7.54h-.76v-12.96h.6l.14 3c.86-1.92 2.83-3.24 5.06-3.24zm22.13 0c3.14 0 5.09 2.14 5.09 5.54v7.66h-.77v-7.54c0-3.07-1.68-4.94-4.46-4.94-2.64 0-4.9 2.28-4.9 4.94v7.54h-.77v-17.52h.77v7.51a5.58 5.58 0 0 1 5.04-3.19zm15.16 13.46c-3.84 0-6.75-2.88-6.75-6.74 0-3.86 2.91-6.72 6.75-6.72 3.86 0 6.74 2.88 6.74 6.72 0 3.86-2.88 6.74-6.74 6.74zm0-.74c3.43 0 5.95-2.57 5.95-6 0-3.41-2.52-5.98-5.95-5.98s-5.98 2.55-5.98 5.98c0 3.43 2.57 6 5.98 6zm16.13-12.72c3.14 0 5.09 2.21 5.09 5.54v7.66h-.77v-7.54c0-3.07-1.68-4.94-4.46-4.94-2.64 0-4.9 2.28-4.9 4.94v7.54h-.77v-12.96h.6l.15 3c.86-1.92 2.83-3.24 5.06-3.24zm15.16 13.46c-3.84 0-6.75-2.88-6.75-6.74 0-3.86 2.91-6.72 6.75-6.72 3.86 0 6.74 2.88 6.74 6.72 0 3.86-2.88 6.74-6.74 6.74zm0-.74c3.43 0 5.95-2.57 5.95-6 0-3.41-2.52-5.98-5.95-5.98s-5.98 2.55-5.98 5.98c0 3.43 2.57 6 5.98 6zm15.65-12.5h1.13v.74h-1.18c-2.71 0-4.51 2.09-4.51 4.94v7.3h-.77v-12.96h.6l.12 2.95c.82-1.82 2.42-2.97 4.61-2.97zm14.07 12.26h1.63v.74h-1.7c-2.42 0-3.89-1.48-3.89-3.96v-8.3h-2.97v-.7h2.97v-3.81h.77v3.81h4.7v.7h-4.7v8.28c0 2.04 1.15 3.24 3.19 3.24zm9.72.98c-3.84 0-6.74-2.88-6.74-6.74 0-3.86 2.9-6.72 6.74-6.72 3.87 0 6.75 2.88 6.75 6.72 0 3.86-2.88 6.74-6.75 6.74zm0-.74c3.44 0 5.96-2.57 5.96-6 0-3.41-2.52-5.98-5.96-5.98-3.43 0-5.97 2.55-5.97 5.98 0 3.43 2.57 6 5.97 6zm22.89-12.46v.7h-4.61V1027h-.76v-12.24h-2.81v-.7h2.81v-1c0-3 1.15-4.18 4.17-4.18h1.2v.67h-1.08c-2.66 0-3.55.89-3.55 3.51v1h4.63zm2.48-2.9v-1.32h1.13v1.32h-1.13zm.19 15.84v-12.96h.77V1027h-.77zm11.29-13.2c3.15 0 5.09 2.21 5.09 5.54v7.66h-.77v-7.54c0-3.07-1.68-4.94-4.46-4.94-2.64 0-4.9 2.28-4.9 4.94v7.54h-.77v-12.96h.6l.15 3c.86-1.92 2.83-3.24 5.06-3.24zm20.87-4.32h.77V1027h-.62l-.12-3.29c-1.06 2.14-3.19 3.55-5.88 3.55-3.79 0-6.6-2.9-6.6-6.74 0-3.82 2.81-6.72 6.6-6.72 2.66 0 4.8 1.39 5.85 3.53v-7.85zm-5.8 17.04c3.38 0 5.85-2.54 5.85-6 0-3.43-2.47-5.98-5.85-5.98-3.36 0-5.88 2.57-5.88 5.98 0 3.41 2.52 6 5.88 6zm23.65.74c-3.84 0-6.75-2.88-6.75-6.74 0-3.86 2.91-6.72 6.75-6.72 3.86 0 6.74 2.88 6.74 6.72 0 3.86-2.88 6.74-6.74 6.74zm0-.74c3.43 0 5.95-2.57 5.95-6 0-3.41-2.52-5.98-5.95-5.98-3.44 0-5.98 2.55-5.98 5.98 0 3.43 2.57 6 5.98 6zm15.53.74c-3.34 0-5.48-2.23-5.48-5.68v-7.54h.77v7.44c0 3.1 1.8 5.04 4.71 5.04 2.9 0 4.68-1.94 4.68-5.04v-7.44h.76v7.54c0 3.45-2.11 5.68-5.44 5.68zm14.78-.98h1.63v.74h-1.71c-2.42 0-3.88-1.48-3.88-3.96v-8.3h-2.98v-.7h2.98v-3.81h.76v3.81h4.71v.7h-4.71v8.28c0 2.04 1.16 3.24 3.2 3.24zm3.62.72v-1.49h1.15v1.49h-1.15zm-588.18 61.86c-8.21 0-13.54-4.36-13.54-11.71h9.56c0 2.4 1.87 3.6 3.98 3.6 1.92 0 3.79-1.05 3.79-2.88 0-2.11-2.64-2.73-5.85-3.5-4.85-1.2-11.04-2.69-11.04-10.32 0-6.63 4.84-10.42 12.76-10.42 8.07 0 12.72 4.13 12.72 10.99h-9.31c0-2.16-1.58-3.16-3.5-3.16-1.63 0-3.22.72-3.22 2.3 0 1.92 2.55 2.54 5.67 3.36 4.99 1.25 11.42 2.93 11.42 10.56 0 7.34-5.62 11.18-13.44 11.18zm30.67 0c-8.31 0-14.31-5.8-14.31-13.82s5.96-13.73 14.36-13.73c7.29 0 12.72 4.56 13.72 11.47h-8.73c-.72-2.11-2.69-3.5-5.04-3.5-3.12 0-5.38 2.4-5.38 5.76 0 3.41 2.26 5.86 5.38 5.86 2.4 0 4.37-1.49 5.09-3.8h8.78c-1.01 7.01-6.58 11.76-13.87 11.76zm33.54-27.5c5.95 0 9.79 4.32 9.79 11.04v15.6h-8.93v-14.54c0-2.98-1.05-4.52-3.41-4.52-2.68 0-4.36 1.92-4.36 5.24V1088h-8.93v-35.28h8.93v11.09c1.92-1.54 4.32-2.45 6.91-2.45zm41.78 13.44c0 .82-.05 1.58-.14 2.4h-19.25c.58 2.98 2.45 4.51 5.28 4.51 2.06 0 3.84-.91 4.66-2.45h8.92c-1.82 5.91-7.1 9.6-13.58 9.6-8.11 0-14.06-5.9-14.06-13.82s5.9-13.78 14.06-13.78c8.35 0 14.11 5.96 14.11 13.54zm-14.11-6.53c-2.59 0-4.42 1.39-5.14 3.99h10.47c-.77-2.6-2.64-3.99-5.33-3.99zm36.7-15.55h8.83V1088h-6.57l-.87-1.92c-2.11 1.78-4.8 2.83-7.82 2.83-7.92 0-13.58-5.81-13.58-13.87 0-8.02 5.66-13.78 13.58-13.78 2.4 0 4.61.63 6.43 1.78v-10.32zm-5.23 28.27c3.36 0 5.81-2.54 5.81-5.9 0-3.41-2.45-5.95-5.81-5.95-3.31 0-5.81 2.54-5.81 5.95 0 3.36 2.5 5.9 5.81 5.9zm32.09 7.87c-7.63 0-12.77-4.7-12.77-11.95v-14.83h8.93v14.45c0 2.73 1.49 4.32 3.84 4.32 2.4 0 3.84-1.63 3.84-4.32v-14.45h8.93v14.83c0 7.25-5.09 11.95-12.77 11.95zm18.04-.86v-35.28h8.92V1088h-8.92zm41.22-13.2c0 .82-.05 1.58-.15 2.4h-19.25c.58 2.98 2.45 4.51 5.28 4.51 2.07 0 3.84-.91 4.66-2.45h8.93c-1.83 5.91-7.11 9.6-13.59 9.6-8.11 0-14.06-5.9-14.06-13.82s5.9-13.78 14.06-13.78c8.36 0 14.12 5.96 14.12 13.54zm-14.12-6.53c-2.59 0-4.41 1.39-5.13 3.99h10.46c-.77-2.6-2.64-3.99-5.33-3.99zm45.54-6.19h9.6l-10.89 24.77c-3.51 7.97-6.68 10.8-13.4 10.8h-3.07v-7.63h2.5c3.41 0 4.41-.92 5.61-4.13l-10.7-23.81h9.7l5.52 14.3 5.13-14.3zm23.99 26.78c-8.45 0-14.5-5.8-14.5-13.82s6.05-13.78 14.5-13.78 14.54 5.76 14.54 13.78-6.09 13.82-14.54 13.82zm0-8.01c3.26 0 5.62-2.35 5.62-5.76 0-3.41-2.36-5.81-5.62-5.81-3.22 0-5.57 2.35-5.57 5.81 0 3.41 2.35 5.76 5.57 5.76zm31.11 8.01c-7.63 0-12.77-4.7-12.77-11.95v-14.83h8.93v14.45c0 2.73 1.49 4.32 3.84 4.32 2.4 0 3.84-1.63 3.84-4.32v-14.45h8.93v14.83c0 7.25-5.09 11.95-12.77 11.95zm32.53-26.88h2.4v8.16h-3.5c-3.12 0-4.46 1.4-4.46 4.71V1088h-8.93v-25.92h6l1.39 2.88c1.82-2.11 4.03-2.98 7.1-2.98zm36.88.82h-12.05v5.33h10.8v8.11h-10.8V1088h-9.36v-33.6h21.41v8.4zm22.98 25.2-5.47-10.27h-3.36V1088h-9.26v-33.6h14.59c7.2 0 12.48 4.9 12.48 11.9 0 4.13-2.02 7.54-5.33 9.51l6.67 12.19h-10.32zm-8.83-25.34v7.29h4.23c2.59 0 4.08-1.58 4.08-3.65 0-2.11-1.49-3.64-4.08-3.64h-4.23zm32.39 17.32h12.72v8.02h-21.93v-33.6h21.5v8.02h-12.29v4.94h11.04v7.58h-11.04v5.04zm27.24 0h12.72v8.02h-21.94v-33.6h21.5v8.02h-12.28v4.94h11.04v7.58h-11.04v5.04zm46.52-27.26h8.83V1088h-6.58l-.86-1.92c-2.11 1.78-4.8 2.83-7.83 2.83-7.92 0-13.58-5.81-13.58-13.87 0-8.02 5.66-13.78 13.58-13.78 2.4 0 4.61.63 6.44 1.78v-10.32zm-5.24 28.27c3.36 0 5.81-2.54 5.81-5.9 0-3.41-2.45-5.95-5.81-5.95-3.31 0-5.8 2.54-5.8 5.95 0 3.36 2.49 5.9 5.8 5.9zm19.71-22.13v-7.58h8.83v7.58h-8.83zm-.05 29.14v-25.92h8.93V1088h-8.93zm24.52.86c-7.06 0-11.33-3.74-11.43-9.36h8.59c0 1.92 1.35 2.79 3.03 2.79 1.29 0 2.54-.67 2.54-2.02 0-1.49-1.97-1.92-4.46-2.3-4.03-.67-9.36-1.87-9.36-8.16 0-5.19 4.46-8.55 11.09-8.55 6.57 0 10.89 3.51 10.99 8.74h-8.4c0-1.63-1.11-2.4-2.69-2.4-1.44 0-2.4.72-2.4 1.92 0 1.44 1.97 1.82 4.42 2.26 4.12.72 9.55 1.58 9.55 8.11 0 5.42-4.56 8.97-11.47 8.97zm28.47 0c-8.3 0-14.3-5.8-14.3-13.82s5.95-13.73 14.35-13.73c7.29 0 12.72 4.56 13.73 11.47h-8.74c-.72-2.11-2.69-3.5-5.04-3.5-3.12 0-5.38 2.4-5.38 5.76 0 3.41 2.26 5.86 5.38 5.86 2.4 0 4.37-1.49 5.09-3.8h8.78c-1.01 7.01-6.57 11.76-13.87 11.76zm30.71 0c-8.45 0-14.5-5.8-14.5-13.82s6.05-13.78 14.5-13.78c8.44 0 14.54 5.76 14.54 13.78s-6.1 13.82-14.54 13.82zm0-8.01c3.26 0 5.61-2.35 5.61-5.76 0-3.41-2.35-5.81-5.61-5.81-3.22 0-5.57 2.35-5.57 5.81 0 3.41 2.35 5.76 5.57 5.76zm34.26-18.77h9.5l-10.42 25.92h-8.06l-10.56-25.92h9.79l4.9 15.36 4.85-15.36zm37.92 12.72c0 .82-.05 1.58-.15 2.4h-19.25c.58 2.98 2.45 4.51 5.28 4.51 2.07 0 3.84-.91 4.66-2.45h8.93c-1.83 5.91-7.11 9.6-13.59 9.6-8.11 0-14.06-5.9-14.06-13.82s5.9-13.78 14.06-13.78c8.36 0 14.12 5.96 14.12 13.54zm-14.12-6.53c-2.59 0-4.41 1.39-5.13 3.99h10.46c-.77-2.6-2.64-3.99-5.33-3.99zm32.67-6.29h2.4v8.16h-3.5c-3.12 0-4.46 1.4-4.46 4.71V1088h-8.93v-25.92h6l1.39 2.88c1.82-2.11 4.03-2.98 7.1-2.98zm23.42.1h9.6l-10.9 24.77c-3.5 7.97-6.67 10.8-13.39 10.8h-3.07v-7.63h2.5c3.4 0 4.41-.92 5.61-4.13l-10.7-23.81h9.69l5.52 14.3 5.14-14.3zm-702.72 87.78c-8.3 0-14.3-5.8-14.3-13.82s5.95-13.73 14.35-13.73c7.29 0 12.72 4.56 13.73 11.47h-8.74c-.72-2.11-2.69-3.5-5.04-3.5-3.12 0-5.38 2.4-5.38 5.76 0 3.41 2.26 5.86 5.38 5.86 2.4 0 4.37-1.49 5.09-3.8h8.78c-1.01 7.01-6.57 11.76-13.87 11.76zm38.63-26.78h6.67V1149h-6.91l-.77-1.82c-2.11 1.72-4.8 2.68-7.82 2.68-7.92 0-13.59-5.76-13.59-13.82 0-8.02 5.67-13.73 13.59-13.73 3.07 0 5.8 1.01 7.92 2.79l.91-2.02zm-7.63 18.91c3.36 0 5.8-2.54 5.8-5.95 0-3.36-2.44-5.86-5.8-5.86s-5.81 2.5-5.81 5.86c0 3.41 2.45 5.95 5.81 5.95zm19.93 7.01v-35.28h8.93V1149h-8.93zm14.54 0v-35.28h8.92V1149h-8.92zm40.2-26.69c7.96 0 13.63 5.71 13.63 13.78 0 8.06-5.67 13.77-13.63 13.77-3.03 0-5.72-1-7.83-2.78l-.81 1.92H2813v-35.28h8.83v10.37c1.88-1.15 4.04-1.78 6.44-1.78zm-1.2 19.63c3.31 0 5.8-2.49 5.8-5.85 0-3.41-2.44-5.91-5.8-5.91-3.32 0-5.81 2.5-5.81 5.91 0 3.36 2.49 5.85 5.81 5.85zm45.57-6.14c0 .82-.04 1.58-.14 2.4h-19.25c.58 2.98 2.45 4.51 5.28 4.51 2.07 0 3.84-.91 4.66-2.45h8.93c-1.83 5.91-7.11 9.6-13.59 9.6-8.11 0-14.06-5.9-14.06-13.82s5.9-13.78 14.06-13.78c8.35 0 14.11 5.96 14.11 13.54zm-14.11-6.53c-2.59 0-4.41 1.39-5.13 3.99h10.46c-.77-2.6-2.64-3.99-5.33-3.99zm18.18 19.73v-35.28h8.92V1149h-8.92zm27.54.86c-8.45 0-14.5-5.8-14.5-13.82s6.05-13.78 14.5-13.78c8.44 0 14.54 5.76 14.54 13.78s-6.1 13.82-14.54 13.82zm0-8.01c3.26 0 5.61-2.35 5.61-5.76 0-3.41-2.35-5.81-5.61-5.81-3.22 0-5.57 2.35-5.57 5.81 0 3.41 2.35 5.76 5.57 5.76zm47.35-18.77h9.12l-8.26 25.92h-7.2l-5.09-11.57-5.04 11.57h-7.2l-8.44-25.92h9.36l3.88 13.63 6.15-13.53h2.4l6.48 13.68 3.84-13.78zm9.94 25.92v-8.26h8.69v8.26h-8.69z"/></g><defs><filter id="a" width="6442.56" height="6161.18" x="-149.96" y="-2153.64" color-interpolation-filters="sRGB" filterUnits="userSpaceOnUse"><feFlood flood-opacity="0" result="BackgroundImageFix"/><feColorMatrix in="SourceAlpha" result="hardAlpha" values="0 0 0 0 0 0 0 0 0 0 0 0 0 0 0 0 0 0 127 0"/><feOffset/><feGaussianBlur stdDeviation="34.02"/><feColorMatrix values="0 0 0 0 0.682353 0 0 0 0 0 0 0 0 0 1 0 0 0 1 0"/><feBlend in2="BackgroundImageFix" result="effect1_dropShadow_90_7"/><feColorMatrix in="SourceAlpha" result="hardAlpha" values="0 0 0 0 0 0 0 0 0 0 0 0 0 0 0 0 0 0 127 0"/><feOffset/><feGaussianBlur stdDeviation="68.04"/><feColorMatrix values="0 0 0 0 0.682353 0 0 0 0 0 0 0 0 0 1 0 0 0 1 0"/><feBlend in2="effect1_dropShadow_90_7" result="effect2_dropShadow_90_7"/><feColorMatrix in="SourceAlpha" result="hardAlpha" values="0 0 0 0 0 0 0 0 0 0 0 0 0 0 0 0 0 0 127 0"/><feOffset/><feGaussianBlur stdDeviation="238.14"/><feColorMatrix values="0 0 0 0 0.682353 0 0 0 0 0 0 0 0 0 1 0 0 0 1 0"/><feBlend in2="effect2_dropShadow_90_7" result="effect3_dropShadow_90_7"/><feColorMatrix in="SourceAlpha" result="hardAlpha" values="0 0 0 0 0 0 0 0 0 0 0 0 0 0 0 0 0 0 127 0"/><feOffset/><feGaussianBlur stdDeviation="476.28"/><feColorMatrix values="0 0 0 0 0.682353 0 0 0 0 0 0 0 0 0 1 0 0 0 1 0"/><feBlend in2="effect3_dropShadow_90_7" result="effect4_dropShadow_90_7"/><feColorMatrix in="SourceAlpha" result="hardAlpha" values="0 0 0 0 0 0 0 0 0 0 0 0 0 0 0 0 0 0 127 0"/><feOffset/><feGaussianBlur stdDeviation="816.48"/><feColorMatrix values="0 0 0 0 0.682353 0 0 0 0 0 0 0 0 0 1 0 0 0 1 0"/><feBlend in2="effect4_dropShadow_90_7" result="effect5_dropShadow_90_7"/><feColorMatrix in="SourceAlpha" result="hardAlpha" values="0 0 0 0 0 0 0 0 0 0 0 0 0 0 0 0 0 0 127 0"/><feOffset/><feGaussianBlur stdDeviation="1428.84"/><feColorMatrix values="0 0 0 0 0.682353 0 0 0 0 0 0 0 0 0 1 0 0 0 1 0"/><feBlend in2="effect5_dropShadow_90_7" result="effect6_dropShadow_90_7"/><feBlend in="SourceGraphic" in2="effect6_dropShadow_90_7" result="shape"/></filter></defs></svg>